<svg xmlns="http://www.w3.org/2000/svg" viewBox="0 0 203 184"><g id="Layer_2" data-name="Layer 2"><g id="PG6"><g id="Group_13044" data-name="Group 13044"><g id="Union_402" data-name="Union 402"><path d="M98,182.64,77,163.27l-.28-.27H17A16,16,0,0,1,1,147V17A16,16,0,0,1,17,1H186a16,16,0,0,1,16,16V147a16,16,0,0,1-16,16H119.27l-.28.27Z" style="fill:#333"/><path d="M98,181.28l20.31-18.75.57-.53H186a15,15,0,0,0,15-15V17A15,15,0,0,0,186,2H17A15,15,0,0,0,2,17V147a15,15,0,0,0,15,15H77.12l.57.53L98,181.28M98,184,76.34,164H17A17,17,0,0,1,0,147V17A17,17,0,0,1,17,0H186a17,17,0,0,1,17,17V147a17,17,0,0,1-17,17H119.66Z" style="fill:#707070"/></g><g id="Group_12072" data-name="Group 12072"><g id="i" style="isolation:isolate"><g style="isolation:isolate"><path d="M102.82,36.76a1.58,1.58,0,0,1-.15.69,1.84,1.84,0,0,1-1,.95,1.7,1.7,0,0,1-.71.14,1.65,1.65,0,0,1-.7-.14,1.75,1.75,0,0,1-1-.95,1.58,1.58,0,0,1-.15-.69,1.71,1.71,0,0,1,.15-.71,1.72,1.72,0,0,1,1-1A1.65,1.65,0,0,1,101,35a1.7,1.7,0,0,1,.71.14,1.82,1.82,0,0,1,1,1A1.71,1.71,0,0,1,102.82,36.76Zm-.39,3.44V52H99.57V40.2Z" style="fill:#fff"/></g></g></g><g id="Group_12073" data-name="Group 12073"><g id="Ellipse_2184" data-name="Ellipse 2184"><circle cx="101" cy="43" r="24" style="fill:none"/><circle cx="101" cy="43" r="23" style="fill:none;stroke:#fff;stroke-width:2px"/></g></g><g id="Enable_your_camera_and_microphone_here" data-name="Enable your camera and microphone here" style="isolation:isolate"><g style="isolation:isolate"><path d="M52.16,95.54V98h3v1.24h-3v2.45H56v1.29H50.54V94.26H56v1.28Z" style="fill:#fff"/><path d="M58.46,97.53a3.17,3.17,0,0,1,.39-.34,2,2,0,0,1,.44-.27,2.6,2.6,0,0,1,.49-.18,2.65,2.65,0,0,1,.58-.06,2.24,2.24,0,0,1,.89.17,1.87,1.87,0,0,1,.65.48,2,2,0,0,1,.4.74,3.16,3.16,0,0,1,.14,1v3.91H61V99a1.36,1.36,0,0,0-.25-.88,1,1,0,0,0-.79-.31,1.48,1.48,0,0,0-.72.18,2.5,2.5,0,0,0-.64.47v4.45H57.07V96.78H58a.37.37,0,0,1,.38.27Z" style="fill:#fff"/><path d="M63.7,97.64a3.63,3.63,0,0,1,2.55-1,2.5,2.5,0,0,1,1,.18,2.14,2.14,0,0,1,.72.49,2.11,2.11,0,0,1,.44.76,2.69,2.69,0,0,1,.16,1v3.88h-.67a.75.75,0,0,1-.33-.06.51.51,0,0,1-.18-.25l-.13-.45c-.16.14-.31.26-.46.37a2.13,2.13,0,0,1-.46.27,2.79,2.79,0,0,1-1.11.22,2.36,2.36,0,0,1-.72-.11,1.57,1.57,0,0,1-.57-.31,1.43,1.43,0,0,1-.38-.52,2,2,0,0,1-.13-.73,1.48,1.48,0,0,1,.08-.46,1.39,1.39,0,0,1,.25-.44,2.28,2.28,0,0,1,.46-.4,3.05,3.05,0,0,1,.7-.32,5.3,5.3,0,0,1,1-.23,9,9,0,0,1,1.25-.1v-.36a1.38,1.38,0,0,0-.26-.92,1,1,0,0,0-.76-.3,1.72,1.72,0,0,0-.6.09,2,2,0,0,0-.42.19l-.32.19a.73.73,0,0,1-.33.08.48.48,0,0,1-.27-.08.75.75,0,0,1-.17-.19Zm3.39,2.67a7.22,7.22,0,0,0-1.08.11,3,3,0,0,0-.7.2,1,1,0,0,0-.38.3.66.66,0,0,0-.11.36.66.66,0,0,0,.23.56,1,1,0,0,0,.6.17,1.74,1.74,0,0,0,.79-.17,2.23,2.23,0,0,0,.65-.5Z" style="fill:#fff"/><path d="M71.41,97.53a3.11,3.11,0,0,1,.83-.62,2.26,2.26,0,0,1,1-.23,2.1,2.1,0,0,1,1.7.81,3,3,0,0,1,.46,1,4.41,4.41,0,0,1,.16,1.25,4.81,4.81,0,0,1-.18,1.36,3.24,3.24,0,0,1-.53,1A2.38,2.38,0,0,1,73,103a2.81,2.81,0,0,1-.53,0,2,2,0,0,1-.43-.16,1.78,1.78,0,0,1-.36-.25,3.34,3.34,0,0,1-.32-.33l-.06.42a.43.43,0,0,1-.13.22.37.37,0,0,1-.23.06h-1V94h1.48Zm0,3.81a1.45,1.45,0,0,0,.55.43,1.69,1.69,0,0,0,.63.13,1.48,1.48,0,0,0,.61-.13,1.22,1.22,0,0,0,.47-.38,2,2,0,0,0,.29-.67,3.91,3.91,0,0,0,.1-1,2.52,2.52,0,0,0-.33-1.46,1.13,1.13,0,0,0-1-.46A1.39,1.39,0,0,0,72,98a2.38,2.38,0,0,0-.61.55Z" style="fill:#fff"/><path d="M78.24,94v8.91H76.76V94Z" style="fill:#fff"/><path d="M80.86,100a3,3,0,0,0,.17.82,1.62,1.62,0,0,0,.35.57,1.39,1.39,0,0,0,.51.34,2,2,0,0,0,.66.11,1.93,1.93,0,0,0,.62-.09,2.34,2.34,0,0,0,.45-.18l.35-.19a.63.63,0,0,1,.28-.08.29.29,0,0,1,.28.14L85,102a2.29,2.29,0,0,1-.55.48,3.15,3.15,0,0,1-.64.31,3.87,3.87,0,0,1-.67.17,5.33,5.33,0,0,1-.67,0,3.36,3.36,0,0,1-1.2-.21,2.59,2.59,0,0,1-1-.63,3.05,3.05,0,0,1-.64-1,3.94,3.94,0,0,1-.23-1.43,3.29,3.29,0,0,1,.2-1.18,3.05,3.05,0,0,1,.58-1,2.87,2.87,0,0,1,.94-.65,3,3,0,0,1,1.23-.24,2.92,2.92,0,0,1,1.08.19,2.17,2.17,0,0,1,.84.54,2.55,2.55,0,0,1,.56.88,3.32,3.32,0,0,1,.2,1.18.89.89,0,0,1-.07.45.3.3,0,0,1-.28.12Zm2.83-.89a2,2,0,0,0-.08-.55,1.36,1.36,0,0,0-.25-.44,1.09,1.09,0,0,0-.41-.31,1.46,1.46,0,0,0-.58-.11,1.41,1.41,0,0,0-1,.37,1.83,1.83,0,0,0-.47,1Z" style="fill:#fff"/><path d="M94.34,96.78,91,104.63a.51.51,0,0,1-.17.23.47.47,0,0,1-.32.08h-1.1l1.15-2.47-2.49-5.69h1.3a.41.41,0,0,1,.27.08.53.53,0,0,1,.15.19l1.31,3.2a3,3,0,0,1,.11.32l.09.33c0-.11.07-.22.11-.33a2.19,2.19,0,0,1,.12-.33l1.23-3.19a.42.42,0,0,1,.16-.19.38.38,0,0,1,.25-.08Z" style="fill:#fff"/><path d="M97.61,96.68a3.51,3.51,0,0,1,1.24.22,2.67,2.67,0,0,1,1,.63,2.91,2.91,0,0,1,.62,1,4.22,4.22,0,0,1,0,2.63,2.87,2.87,0,0,1-.62,1,2.67,2.67,0,0,1-1,.63,3.3,3.3,0,0,1-1.24.22,3.4,3.4,0,0,1-1.26-.22,2.68,2.68,0,0,1-1.58-1.64,4,4,0,0,1,0-2.63,2.91,2.91,0,0,1,.62-1,2.86,2.86,0,0,1,1-.63A3.62,3.62,0,0,1,97.61,96.68Zm0,5.2a1.29,1.29,0,0,0,1.13-.51,3.29,3.29,0,0,0,0-3,1.27,1.27,0,0,0-1.13-.52,1.33,1.33,0,0,0-1.16.52,2.61,2.61,0,0,0-.37,1.52,2.52,2.52,0,0,0,.37,1.5A1.33,1.33,0,0,0,97.61,101.88Z" style="fill:#fff"/><path d="M107.08,96.78v6.15h-.9a.36.36,0,0,1-.38-.27l-.1-.49a3.27,3.27,0,0,1-.83.62,2.49,2.49,0,0,1-2,.07,2,2,0,0,1-.65-.48,2.24,2.24,0,0,1-.4-.75,3.1,3.1,0,0,1-.13-.94V96.78h1.48v3.91a1.31,1.31,0,0,0,.26.87,1,1,0,0,0,.78.31,1.59,1.59,0,0,0,.72-.17,2.34,2.34,0,0,0,.64-.47V96.78Z" style="fill:#fff"/><path d="M109.94,97.85a2.69,2.69,0,0,1,.69-.87,1.44,1.44,0,0,1,.93-.32,1.18,1.18,0,0,1,.69.19l-.1,1.11a.27.27,0,0,1-.09.15.21.21,0,0,1-.15,0l-.27,0a2,2,0,0,0-.34,0,1.23,1.23,0,0,0-.44.07,1.08,1.08,0,0,0-.34.21,1.18,1.18,0,0,0-.27.32,3.61,3.61,0,0,0-.22.44v3.79h-1.48V96.78h.87a.43.43,0,0,1,.31.08.46.46,0,0,1,.12.29Z" style="fill:#fff"/><path d="M120.1,98.08a.79.79,0,0,1-.13.13.36.36,0,0,1-.19.05.38.38,0,0,1-.22-.07L119.3,98a2.3,2.3,0,0,0-.35-.15,1.56,1.56,0,0,0-.52-.07,1.59,1.59,0,0,0-.68.14,1.22,1.22,0,0,0-.49.41A1.74,1.74,0,0,0,117,99a3.67,3.67,0,0,0-.1.85,3.36,3.36,0,0,0,.11.88,1.81,1.81,0,0,0,.3.64,1.23,1.23,0,0,0,.48.4,1.47,1.47,0,0,0,.64.14,1.55,1.55,0,0,0,.57-.09,1.81,1.81,0,0,0,.37-.19l.26-.2a.44.44,0,0,1,.25-.08.29.29,0,0,1,.27.14l.43.54a3,3,0,0,1-.54.48,2.85,2.85,0,0,1-.6.31,3.25,3.25,0,0,1-.63.17,4.82,4.82,0,0,1-.65,0,2.81,2.81,0,0,1-1.08-.21,2.56,2.56,0,0,1-.88-.62,3.1,3.1,0,0,1-.6-1,4,4,0,0,1-.21-1.35,3.86,3.86,0,0,1,.19-1.25,3,3,0,0,1,.57-1,2.75,2.75,0,0,1,.94-.66,3.49,3.49,0,0,1,2.49,0,3,3,0,0,1,.94.64Z" style="fill:#fff"/><path d="M121.33,97.64a3.63,3.63,0,0,1,2.55-1,2.5,2.5,0,0,1,1,.18,2.14,2.14,0,0,1,.72.49,2.11,2.11,0,0,1,.44.76,2.69,2.69,0,0,1,.16,1v3.88h-.67a.75.75,0,0,1-.33-.06.51.51,0,0,1-.18-.25l-.13-.45c-.16.14-.31.26-.46.37a2.13,2.13,0,0,1-.46.27,2.79,2.79,0,0,1-1.11.22,2.36,2.36,0,0,1-.72-.11,1.57,1.57,0,0,1-.57-.31,1.43,1.43,0,0,1-.38-.52,2,2,0,0,1-.13-.73,1.48,1.48,0,0,1,.08-.46,1.39,1.39,0,0,1,.25-.44,2.28,2.28,0,0,1,.46-.4,3.05,3.05,0,0,1,.7-.32,5.3,5.3,0,0,1,1-.23,9,9,0,0,1,1.25-.1v-.36a1.38,1.38,0,0,0-.26-.92,1,1,0,0,0-.76-.3,1.72,1.72,0,0,0-.6.09,2,2,0,0,0-.42.19l-.33.19a.66.66,0,0,1-.32.08.48.48,0,0,1-.27-.08.75.75,0,0,1-.17-.19Zm3.39,2.67a7.22,7.22,0,0,0-1.08.11,3,3,0,0,0-.7.2,1,1,0,0,0-.38.3.66.66,0,0,0-.11.36.63.63,0,0,0,.23.56,1,1,0,0,0,.6.17,1.74,1.74,0,0,0,.79-.17,2.23,2.23,0,0,0,.65-.5Z" style="fill:#fff"/><path d="M127.56,102.93V96.78h.91a.36.36,0,0,1,.37.27l.1.45a3.51,3.51,0,0,1,.34-.33,1.92,1.92,0,0,1,.38-.25,1.85,1.85,0,0,1,.43-.18,2,2,0,0,1,.51-.06,1.44,1.44,0,0,1,1,.32,1.88,1.88,0,0,1,.56.83,2,2,0,0,1,1.39-1.08,2.3,2.3,0,0,1,.58-.07,2.38,2.38,0,0,1,.91.16,1.69,1.69,0,0,1,.66.45,2,2,0,0,1,.41.74,3,3,0,0,1,.15,1v3.91h-1.49V99a1.33,1.33,0,0,0-.25-.89,1,1,0,0,0-.76-.3,1.16,1.16,0,0,0-.42.08,1,1,0,0,0-.35.23,1.11,1.11,0,0,0-.23.37,1.52,1.52,0,0,0-.08.51v3.91h-1.49V99a1.29,1.29,0,0,0-.25-.9.91.91,0,0,0-.73-.29,1.28,1.28,0,0,0-.6.16,1.94,1.94,0,0,0-.52.44v4.5Z" style="fill:#fff"/><path d="M138.75,100a2.7,2.7,0,0,0,.17.82,1.62,1.62,0,0,0,.35.57,1.39,1.39,0,0,0,.51.34,1.94,1.94,0,0,0,.66.11,2,2,0,0,0,.62-.09,2.34,2.34,0,0,0,.45-.18l.34-.19a.67.67,0,0,1,.29-.08.3.3,0,0,1,.28.14l.42.54a2.5,2.5,0,0,1-.55.48,3.15,3.15,0,0,1-.64.31,4,4,0,0,1-.68.17,5.12,5.12,0,0,1-.67,0,3.35,3.35,0,0,1-1.19-.21,2.59,2.59,0,0,1-1-.63,2.9,2.9,0,0,1-.64-1,3.93,3.93,0,0,1-.24-1.43,3.29,3.29,0,0,1,.21-1.18,2.88,2.88,0,0,1,.58-1,2.94,2.94,0,0,1,.93-.65,3.08,3.08,0,0,1,1.24-.24,2.92,2.92,0,0,1,1.08.19,2.25,2.25,0,0,1,.84.54,2.55,2.55,0,0,1,.56.88,3.32,3.32,0,0,1,.2,1.18,1,1,0,0,1-.07.45.31.31,0,0,1-.28.12Zm2.83-.89a1.67,1.67,0,0,0-.09-.55,1.21,1.21,0,0,0-.65-.75,1.5,1.5,0,0,0-.58-.11,1.39,1.39,0,0,0-1,.37,1.77,1.77,0,0,0-.47,1Z" style="fill:#fff"/><path d="M145.42,97.85a2.67,2.67,0,0,1,.68-.87,1.47,1.47,0,0,1,.94-.32,1.17,1.17,0,0,1,.68.19l-.1,1.11a.35.35,0,0,1-.08.15.25.25,0,0,1-.16,0l-.26,0-.35,0a1.23,1.23,0,0,0-.44.07,1.2,1.2,0,0,0-.34.21,1.69,1.69,0,0,0-.27.32,3.61,3.61,0,0,0-.22.44v3.79H144V96.78h.87a.46.46,0,0,1,.32.08.46.46,0,0,1,.12.29Z" style="fill:#fff"/><path d="M148.27,97.64a3.66,3.66,0,0,1,2.56-1,2.42,2.42,0,0,1,1,.18,2,2,0,0,1,.72.49,2,2,0,0,1,.45.76,2.93,2.93,0,0,1,.15,1v3.88h-.67a.67.67,0,0,1-.32-.06.41.41,0,0,1-.18-.25l-.13-.45c-.16.14-.31.26-.46.37a2.4,2.4,0,0,1-.46.27,2.64,2.64,0,0,1-.52.16,2.77,2.77,0,0,1-.6.06,2.36,2.36,0,0,1-.72-.11,1.57,1.57,0,0,1-.57-.31,1.41,1.41,0,0,1-.37-.52,1.83,1.83,0,0,1-.13-.73,1.24,1.24,0,0,1,.08-.46,1.22,1.22,0,0,1,.25-.44,2,2,0,0,1,.46-.4,3.17,3.17,0,0,1,.69-.32,5.64,5.64,0,0,1,1-.23,8.92,8.92,0,0,1,1.25-.1v-.36a1.33,1.33,0,0,0-.27-.92,1,1,0,0,0-.76-.3,1.72,1.72,0,0,0-.6.09,2.22,2.22,0,0,0-.41.19l-.33.19a.73.73,0,0,1-.33.08.45.45,0,0,1-.26-.08.75.75,0,0,1-.17-.19Zm3.4,2.67a7.22,7.22,0,0,0-1.08.11,2.84,2.84,0,0,0-.7.2.94.94,0,0,0-.38.3.6.6,0,0,0-.12.36.66.66,0,0,0,.23.56,1,1,0,0,0,.61.17,1.8,1.8,0,0,0,.79-.17,2.23,2.23,0,0,0,.65-.5Z" style="fill:#fff"/></g><g style="isolation:isolate"><path d="M45.7,113.64a3.66,3.66,0,0,1,2.56-1,2.42,2.42,0,0,1,1,.18,2,2,0,0,1,.72.49,2,2,0,0,1,.45.76,2.93,2.93,0,0,1,.15,1v3.88h-.67a.67.67,0,0,1-.32-.06.41.41,0,0,1-.18-.25l-.13-.45c-.16.14-.31.26-.46.37a2.4,2.4,0,0,1-.46.27,2.64,2.64,0,0,1-.52.16,2.77,2.77,0,0,1-.6.06,2.36,2.36,0,0,1-.72-.11,1.57,1.57,0,0,1-.57-.31,1.41,1.41,0,0,1-.37-.52,1.83,1.83,0,0,1-.13-.73,1.24,1.24,0,0,1,.08-.46,1.22,1.22,0,0,1,.25-.44,2,2,0,0,1,.46-.4,3.17,3.17,0,0,1,.69-.32,5.64,5.64,0,0,1,1-.23,8.92,8.92,0,0,1,1.25-.1v-.36a1.33,1.33,0,0,0-.27-.92,1,1,0,0,0-.76-.3,1.72,1.72,0,0,0-.6.09,2.22,2.22,0,0,0-.41.19l-.33.19a.73.73,0,0,1-.33.08.45.45,0,0,1-.26-.08.75.75,0,0,1-.17-.19Zm3.4,2.67a7.22,7.22,0,0,0-1.08.11,2.84,2.84,0,0,0-.7.2.94.94,0,0,0-.38.3.6.6,0,0,0-.12.36.66.66,0,0,0,.23.56,1,1,0,0,0,.61.17,1.8,1.8,0,0,0,.79-.17,2.23,2.23,0,0,0,.65-.5Z" style="fill:#fff"/><path d="M53.32,113.53c.13-.12.26-.24.39-.34a2.27,2.27,0,0,1,.44-.27,2.7,2.7,0,0,1,.5-.18,2.56,2.56,0,0,1,.57-.06,2.29,2.29,0,0,1,.9.17,2,2,0,0,1,.65.48,2.18,2.18,0,0,1,.39.74,3.16,3.16,0,0,1,.14,1v3.91H55.82V115a1.36,1.36,0,0,0-.26-.88,1,1,0,0,0-.79-.31,1.54,1.54,0,0,0-.72.18,2.46,2.46,0,0,0-.63.47v4.45H51.94v-6.15h.9a.37.37,0,0,1,.38.27Z" style="fill:#fff"/><path d="M64.05,110v8.91h-.91a.35.35,0,0,1-.37-.27l-.12-.59a3.35,3.35,0,0,1-.86.69,2.26,2.26,0,0,1-1.12.26,2.05,2.05,0,0,1-.93-.21,2,2,0,0,1-.72-.61,2.88,2.88,0,0,1-.47-1,5,5,0,0,1-.16-1.35,4.33,4.33,0,0,1,.18-1.27,3.11,3.11,0,0,1,.54-1,2.43,2.43,0,0,1,.83-.67,2.3,2.3,0,0,1,1.09-.25,2.19,2.19,0,0,1,1.54.6V110Zm-1.48,4.33a1.45,1.45,0,0,0-.55-.43,1.53,1.53,0,0,0-.64-.13,1.36,1.36,0,0,0-.61.13,1.19,1.19,0,0,0-.46.38A1.78,1.78,0,0,0,60,115a3.6,3.6,0,0,0-.1.92,4.09,4.09,0,0,0,.08.92,1.81,1.81,0,0,0,.25.61.93.93,0,0,0,.4.34,1.24,1.24,0,0,0,.52.11,1.62,1.62,0,0,0,.79-.19,2.38,2.38,0,0,0,.61-.55Z" style="fill:#fff"/><path d="M68.43,118.93v-6.15h.91a.36.36,0,0,1,.37.27l.1.45a3.51,3.51,0,0,1,.34-.33,1.92,1.92,0,0,1,.38-.25,1.85,1.85,0,0,1,.43-.18,2,2,0,0,1,.51-.06,1.44,1.44,0,0,1,1,.32,1.88,1.88,0,0,1,.56.83,2,2,0,0,1,1.39-1.08,2.3,2.3,0,0,1,.58-.07,2.38,2.38,0,0,1,.91.16,1.69,1.69,0,0,1,.66.45,2,2,0,0,1,.41.74,3,3,0,0,1,.15,1v3.91H75.59V115a1.33,1.33,0,0,0-.25-.89,1,1,0,0,0-.76-.3,1.16,1.16,0,0,0-.42.08,1,1,0,0,0-.35.23,1.11,1.11,0,0,0-.23.37,1.52,1.52,0,0,0-.08.51v3.91H72V115a1.29,1.29,0,0,0-.25-.9.91.91,0,0,0-.73-.29,1.28,1.28,0,0,0-.6.16,1.94,1.94,0,0,0-.52.44v4.5Z" style="fill:#fff"/><path d="M80.22,111a.86.86,0,0,1-.08.36.9.9,0,0,1-.21.3.93.93,0,0,1-.3.2.9.9,0,0,1-.37.07.86.86,0,0,1-.36-.07.93.93,0,0,1-.3-.2,1,1,0,0,1-.2-.3.86.86,0,0,1-.08-.36,1,1,0,0,1,.08-.37,1.21,1.21,0,0,1,.2-.3.93.93,0,0,1,.3-.2.86.86,0,0,1,.36-.07.9.9,0,0,1,.37.07.93.93,0,0,1,.3.2,1,1,0,0,1,.21.3A1,1,0,0,1,80.22,111Zm-.2,1.8v6.15H78.53v-6.15Z" style="fill:#fff"/><path d="M85.94,114.08a.79.79,0,0,1-.13.13.3.3,0,0,1-.18.05.41.41,0,0,1-.23-.07l-.25-.16a2.06,2.06,0,0,0-.36-.15,1.53,1.53,0,0,0-.51-.07,1.67,1.67,0,0,0-.69.14,1.29,1.29,0,0,0-.49.41,1.93,1.93,0,0,0-.29.63,3.7,3.7,0,0,0-.09.85,3.38,3.38,0,0,0,.1.88,1.81,1.81,0,0,0,.3.64,1.39,1.39,0,0,0,.48.4,1.67,1.67,0,0,0,1.21,0,1.81,1.81,0,0,0,.37-.19l.26-.2a.46.46,0,0,1,.25-.08.29.29,0,0,1,.27.14l.43.54a2.7,2.7,0,0,1-.54.48,3,3,0,0,1-.59.31,3.55,3.55,0,0,1-.64.17,4.73,4.73,0,0,1-.65,0,2.72,2.72,0,0,1-1.07-.21,2.6,2.6,0,0,1-.89-.62,2.91,2.91,0,0,1-.59-1,3.75,3.75,0,0,1-.22-1.35,3.86,3.86,0,0,1,.19-1.25,2.81,2.81,0,0,1,.58-1,2.62,2.62,0,0,1,.93-.66,3.23,3.23,0,0,1,1.29-.24,3.13,3.13,0,0,1,1.2.22,3,3,0,0,1,.94.64Z" style="fill:#fff"/><path d="M88.71,113.85a2.67,2.67,0,0,1,.68-.87,1.49,1.49,0,0,1,.94-.32,1.17,1.17,0,0,1,.68.19L90.92,114a.27.27,0,0,1-.09.15.25.25,0,0,1-.15,0l-.27,0-.34,0a1.2,1.2,0,0,0-.44.07,1.13,1.13,0,0,0-.35.21,1.69,1.69,0,0,0-.27.32,3.61,3.61,0,0,0-.22.44v3.79H87.31v-6.15h.87a.46.46,0,0,1,.32.08.46.46,0,0,1,.12.29Z" style="fill:#fff"/><path d="M94.34,112.68a3.51,3.51,0,0,1,1.24.22,2.67,2.67,0,0,1,1,.63,2.91,2.91,0,0,1,.62,1,4.22,4.22,0,0,1,0,2.63,2.87,2.87,0,0,1-.62,1,2.67,2.67,0,0,1-1,.63,3.3,3.3,0,0,1-1.24.22,3.4,3.4,0,0,1-1.26-.22,2.68,2.68,0,0,1-1.58-1.64,4,4,0,0,1,0-2.63,2.91,2.91,0,0,1,.62-1,2.86,2.86,0,0,1,1-.63A3.62,3.62,0,0,1,94.34,112.68Zm0,5.2a1.29,1.29,0,0,0,1.13-.51,3.29,3.29,0,0,0,0-3,1.27,1.27,0,0,0-1.13-.52,1.33,1.33,0,0,0-1.16.52,2.61,2.61,0,0,0-.37,1.52,2.52,2.52,0,0,0,.37,1.5A1.33,1.33,0,0,0,94.34,117.88Z" style="fill:#fff"/><path d="M99.91,113.62a3,3,0,0,1,.86-.69,2.25,2.25,0,0,1,1.13-.27,2,2,0,0,1,.92.21,2.1,2.1,0,0,1,.72.61,3,3,0,0,1,.47,1,4.92,4.92,0,0,1,.16,1.34,4.09,4.09,0,0,1-.19,1.28,3.09,3.09,0,0,1-.53,1,2.38,2.38,0,0,1-1.92.91,2.18,2.18,0,0,1-.89-.16,2,2,0,0,1-.65-.44v2.52H98.51v-8.16h.9a.36.36,0,0,1,.38.27Zm.08,3.72a1.45,1.45,0,0,0,.55.43,1.7,1.7,0,0,0,.64.13,1.48,1.48,0,0,0,.61-.13,1.19,1.19,0,0,0,.46-.38,2.12,2.12,0,0,0,.29-.66,3.6,3.6,0,0,0,.1-.92,4,4,0,0,0-.09-.92,1.63,1.63,0,0,0-.25-.61.91.91,0,0,0-.39-.34,1.24,1.24,0,0,0-.52-.11,1.52,1.52,0,0,0-.79.2,2.22,2.22,0,0,0-.61.55Z" style="fill:#fff"/><path d="M106.8,113.44a3.26,3.26,0,0,1,.8-.55,2.25,2.25,0,0,1,1-.21,2.33,2.33,0,0,1,.9.17,2.07,2.07,0,0,1,.65.48,2.18,2.18,0,0,1,.39.74,3.16,3.16,0,0,1,.14,1v3.91H109.2V115a1.36,1.36,0,0,0-.25-.88,1,1,0,0,0-.79-.31,1.48,1.48,0,0,0-.72.18,2.69,2.69,0,0,0-.64.47v4.45h-1.48V110h1.48Z" style="fill:#fff"/><path d="M114.82,112.68a3.51,3.51,0,0,1,1.24.22,2.86,2.86,0,0,1,1,.63,2.75,2.75,0,0,1,.61,1,4,4,0,0,1,0,2.63,2.71,2.71,0,0,1-.61,1,2.86,2.86,0,0,1-1,.63,3.3,3.3,0,0,1-1.24.22,3.4,3.4,0,0,1-1.26-.22,2.76,2.76,0,0,1-1-.63,2.87,2.87,0,0,1-.62-1,4,4,0,0,1,0-2.63,2.91,2.91,0,0,1,.62-1,2.76,2.76,0,0,1,1-.63A3.62,3.62,0,0,1,114.82,112.68Zm0,5.2a1.29,1.29,0,0,0,1.13-.51,3.29,3.29,0,0,0,0-3,1.27,1.27,0,0,0-1.13-.52,1.33,1.33,0,0,0-1.16.52,2.6,2.6,0,0,0-.38,1.52,2.51,2.51,0,0,0,.38,1.5A1.33,1.33,0,0,0,114.82,117.88Z" style="fill:#fff"/><path d="M120.37,113.53a4.13,4.13,0,0,1,.39-.34,2.27,2.27,0,0,1,.44-.27,2.7,2.7,0,0,1,.5-.18,2.56,2.56,0,0,1,.57-.06,2.29,2.29,0,0,1,.9.17,2,2,0,0,1,.65.48,2.18,2.18,0,0,1,.39.74,3.16,3.16,0,0,1,.14,1v3.91h-1.48V115a1.36,1.36,0,0,0-.26-.88,1,1,0,0,0-.79-.31,1.54,1.54,0,0,0-.72.18,2.46,2.46,0,0,0-.63.47v4.45H119v-6.15h.91a.37.37,0,0,1,.38.27Z" style="fill:#fff"/><path d="M126.89,116a3,3,0,0,0,.17.82,1.78,1.78,0,0,0,.35.57,1.39,1.39,0,0,0,.51.34,2,2,0,0,0,.66.11,1.89,1.89,0,0,0,.62-.09,2.45,2.45,0,0,0,.46-.18l.34-.19a.63.63,0,0,1,.28-.08.29.29,0,0,1,.28.14l.42.54a2.29,2.29,0,0,1-.55.48,2.91,2.91,0,0,1-.64.31,3.87,3.87,0,0,1-.67.17,5.22,5.22,0,0,1-.67,0,3.36,3.36,0,0,1-1.2-.21,2.67,2.67,0,0,1-1-.63,3.05,3.05,0,0,1-.64-1,4.16,4.16,0,0,1-.23-1.43,3.29,3.29,0,0,1,.2-1.18,2.91,2.91,0,0,1,.59-1,2.73,2.73,0,0,1,.93-.65,3,3,0,0,1,1.24-.24,2.9,2.9,0,0,1,1.07.19,2.29,2.29,0,0,1,.85.54,2.53,2.53,0,0,1,.55.88,3.32,3.32,0,0,1,.2,1.18.89.89,0,0,1-.07.45.3.3,0,0,1-.28.12Zm2.83-.89a2,2,0,0,0-.08-.55,1.55,1.55,0,0,0-.24-.44,1.21,1.21,0,0,0-.42-.31,1.43,1.43,0,0,0-.58-.11,1.41,1.41,0,0,0-1,.37,1.83,1.83,0,0,0-.47,1Z" style="fill:#fff"/><path d="M136.56,113.44a3,3,0,0,1,.79-.55,2.5,2.5,0,0,1,1.91,0,1.87,1.87,0,0,1,.65.48,2.19,2.19,0,0,1,.4.74,3.16,3.16,0,0,1,.13,1v3.91H139V115a1.36,1.36,0,0,0-.26-.88,1,1,0,0,0-.79-.31,1.54,1.54,0,0,0-.72.18,2.46,2.46,0,0,0-.63.47v4.45h-1.48V110h1.48Z" style="fill:#fff"/><path d="M143,116a3.47,3.47,0,0,0,.17.82,1.78,1.78,0,0,0,.35.57,1.57,1.57,0,0,0,.51.34,2,2,0,0,0,.66.11,1.89,1.89,0,0,0,.62-.09,2.21,2.21,0,0,0,.46-.18l.34-.19a.63.63,0,0,1,.29-.08.29.29,0,0,1,.27.14l.43.54a2.75,2.75,0,0,1-.55.48,3.42,3.42,0,0,1-.64.31,4.23,4.23,0,0,1-.68.17,5.12,5.12,0,0,1-.67,0,3.36,3.36,0,0,1-1.2-.21,2.76,2.76,0,0,1-1-.63,3.05,3.05,0,0,1-.64-1,4.16,4.16,0,0,1-.23-1.43,3.52,3.52,0,0,1,.2-1.18,2.91,2.91,0,0,1,.59-1,2.73,2.73,0,0,1,.93-.65,3,3,0,0,1,1.24-.24,2.9,2.9,0,0,1,1.07.19,2.29,2.29,0,0,1,.85.54,2.53,2.53,0,0,1,.55.88,3.11,3.11,0,0,1,.2,1.18.89.89,0,0,1-.07.45.29.29,0,0,1-.27.12Zm2.83-.89a2,2,0,0,0-.08-.55,1.34,1.34,0,0,0-.24-.44,1.27,1.27,0,0,0-.41-.31,1.5,1.5,0,0,0-.58-.11,1.38,1.38,0,0,0-1,.37,1.78,1.78,0,0,0-.48,1Z" style="fill:#fff"/><path d="M149.65,113.85a2.67,2.67,0,0,1,.68-.87,1.49,1.49,0,0,1,.94-.32,1.17,1.17,0,0,1,.68.19l-.09,1.11a.27.27,0,0,1-.09.15.25.25,0,0,1-.15,0l-.27,0-.34,0a1.2,1.2,0,0,0-.44.07,1.25,1.25,0,0,0-.35.21,1.69,1.69,0,0,0-.27.32c-.07.13-.15.28-.22.44v3.79h-1.48v-6.15h.87a.46.46,0,0,1,.32.08.46.46,0,0,1,.12.29Z" style="fill:#fff"/><path d="M153.69,116a3.47,3.47,0,0,0,.17.82,1.78,1.78,0,0,0,.35.57,1.57,1.57,0,0,0,.51.34,2,2,0,0,0,.66.11,1.89,1.89,0,0,0,.62-.09,2.21,2.21,0,0,0,.46-.18l.34-.19a.63.63,0,0,1,.29-.08.29.29,0,0,1,.27.14l.43.54a2.55,2.55,0,0,1-.56.48,3.07,3.07,0,0,1-.63.31,4.23,4.23,0,0,1-.68.17,5.22,5.22,0,0,1-.67,0,3.36,3.36,0,0,1-1.2-.21,2.76,2.76,0,0,1-1-.63,3.05,3.05,0,0,1-.64-1,4.16,4.16,0,0,1-.23-1.43,3.52,3.52,0,0,1,.2-1.18,2.91,2.91,0,0,1,.59-1,2.73,2.73,0,0,1,.93-.65,3,3,0,0,1,1.24-.24,2.9,2.9,0,0,1,1.07.19,2.29,2.29,0,0,1,.85.54,2.53,2.53,0,0,1,.55.88,3.11,3.11,0,0,1,.2,1.18.89.89,0,0,1-.07.45.29.29,0,0,1-.27.12Zm2.83-.89a2,2,0,0,0-.08-.55,1.34,1.34,0,0,0-.24-.44,1.27,1.27,0,0,0-.41-.31,1.5,1.5,0,0,0-.58-.11,1.38,1.38,0,0,0-1,.37,1.78,1.78,0,0,0-.48,1Z" style="fill:#fff"/></g></g></g></g></g></svg>