<svg xmlns="http://www.w3.org/2000/svg" xmlns:xlink="http://www.w3.org/1999/xlink" width="260" height="260" viewBox="0 0 260 260">
  <defs>
    <clipPath id="clip-ChatBot_2">
      <rect width="260" height="260"/>
    </clipPath>
  </defs>
  <g id="ChatBot_2" clip-path="url(#clip-ChatBot_2)">
    <rect id="Rectangle_17989" data-name="Rectangle 17989" width="258" height="258" rx="40" transform="translate(1 1)" opacity="0.1"/>
    <circle id="Ellipse_2161" data-name="Ellipse 2161" cx="27.5" cy="27.5" r="27.5" transform="translate(180.6 179.598)" fill="#2c2c2c"/>
    <circle id="Ellipse_2160" data-name="Ellipse 2160" cx="90" cy="90" r="90" transform="translate(25 25)" fill="#fff"/>
    <path id="Path_3253" data-name="Path 3253" d="M-30.172-97.813a49.062,49.062,0,0,1,5.647-4.069,44.212,44.212,0,0,1,6.559-3.332,41.064,41.064,0,0,1,7.541-2.245,44.546,44.546,0,0,1,8.734-.807A37.707,37.707,0,0,1,10.2-106.512a25.751,25.751,0,0,1,9.014,5.016,21.987,21.987,0,0,1,5.717,7.857,25.318,25.318,0,0,1,2,10.207,26.056,26.056,0,0,1-1.473,9.225,25.7,25.7,0,0,1-3.718,6.77,28.5,28.5,0,0,1-4.946,4.981q-2.7,2.1-5.121,3.893a39.816,39.816,0,0,0-4.209,3.543,7.894,7.894,0,0,0-2.28,3.928L3.22-41.271H-11.652L-13.2-52.566a9.741,9.741,0,0,1,.7-6,16.043,16.043,0,0,1,3.472-4.63,40.579,40.579,0,0,1,4.946-3.928,48.347,48.347,0,0,0,5.121-4,22.294,22.294,0,0,0,4.034-4.77,11.582,11.582,0,0,0,1.649-6.278,8.56,8.56,0,0,0-2.771-6.7,10.973,10.973,0,0,0-7.611-2.49,21.281,21.281,0,0,0-6.208.772,25.016,25.016,0,0,0-4.279,1.719q-1.789.947-3.122,1.719a5.28,5.28,0,0,1-2.666.772,4.831,4.831,0,0,1-4.49-2.6Zm12.908,81.866a11.643,11.643,0,0,1,.947-4.7,11.88,11.88,0,0,1,2.6-3.788A12.384,12.384,0,0,1-9.828-27a12.506,12.506,0,0,1,4.911-.947A12.324,12.324,0,0,1-.077-27a12.82,12.82,0,0,1,3.928,2.561,11.612,11.612,0,0,1,2.631,3.788,11.643,11.643,0,0,1,.947,4.7,11.893,11.893,0,0,1-.947,4.735A11.515,11.515,0,0,1,3.851-7.389,12.315,12.315,0,0,1-.077-4.863a12.737,12.737,0,0,1-4.84.912,12.926,12.926,0,0,1-4.911-.912,11.906,11.906,0,0,1-3.893-2.525,11.778,11.778,0,0,1-2.6-3.823A11.892,11.892,0,0,1-17.264-15.947Z" transform="translate(116.363 175.49)" fill="#2c2c2c"/>
  </g>
</svg>
