<svg xmlns="http://www.w3.org/2000/svg" width="34" height="34" viewBox="0 0 34 34">
  <g id="Group_8801" data-name="Group 8801" transform="translate(-1112 -227)">
    <path id="Path_2035" data-name="Path 2035" d="M3.843-15.078v6.006q0,.473-.021.924t-.058.908q-.037.457-.089.94T3.559-5.282H2.174Q2.11-5.817,2.058-6.3t-.089-.94q-.037-.457-.058-.908T1.89-9.072v-6.006ZM1.449-1.229a1.378,1.378,0,0,1,.105-.535A1.353,1.353,0,0,1,1.848-2.2a1.425,1.425,0,0,1,.441-.3,1.347,1.347,0,0,1,.546-.11,1.321,1.321,0,0,1,.536.11,1.425,1.425,0,0,1,.441.3,1.425,1.425,0,0,1,.3.441,1.321,1.321,0,0,1,.11.535,1.347,1.347,0,0,1-.11.546,1.425,1.425,0,0,1-.3.441,1.353,1.353,0,0,1-.441.294,1.378,1.378,0,0,1-.536.105A1.405,1.405,0,0,1,2.289.052a1.353,1.353,0,0,1-.441-.294,1.353,1.353,0,0,1-.294-.441A1.405,1.405,0,0,1,1.449-1.229Z" transform="translate(1126 251)" fill="#fedb00"/>
    <g id="Path_2036" data-name="Path 2036" transform="translate(1112 227)" fill="none">
      <path d="M17,0A17,17,0,1,1,0,17,17,17,0,0,1,17,0Z" stroke="none"/>
      <path d="M 17 2 C 12.99336051940918 2 9.226520538330078 3.560270309448242 6.393400192260742 6.393400192260742 C 3.560270309448242 9.226520538330078 2 12.99336051940918 2 17 C 2 21.00664138793945 3.560270309448242 24.77347946166992 6.393400192260742 27.60659980773926 C 9.226520538330078 30.43972969055176 12.99336051940918 32 17 32 C 21.00664138793945 32 24.77347946166992 30.43972969055176 27.60659980773926 27.60659980773926 C 30.43972969055176 24.77347946166992 32 21.00664138793945 32 17 C 32 12.99336051940918 30.43972969055176 9.226520538330078 27.60659980773926 6.393400192260742 C 24.77347946166992 3.560270309448242 21.00664138793945 2 17 2 M 17 0 C 26.38883972167969 0 34 7.611160278320312 34 17 C 34 26.38883972167969 26.38883972167969 34 17 34 C 7.611160278320312 34 0 26.38883972167969 0 17 C 0 7.611160278320312 7.611160278320312 0 17 0 Z" stroke="none" fill="#fedb00"/>
    </g>
  </g>
</svg>
