<svg id="Layer_1" data-name="Layer 1" xmlns="http://www.w3.org/2000/svg" viewBox="0 0 100.3 104.16"><defs><style>.cls-1{fill:#fff;}</style></defs><g id="Group_526" data-name="Group 526"><path id="Path_583" data-name="Path 583" class="cls-1" d="M393.42,257a9.9,9.9,0,0,1-.92,4.22,11.44,11.44,0,0,1-6,5.79,10.89,10.89,0,0,1-4.36.88,10.38,10.38,0,0,1-4.25-.88,11.14,11.14,0,0,1-3.48-2.35,11.43,11.43,0,0,1-2.35-3.44,10.21,10.21,0,0,1-.88-4.22,10.84,10.84,0,0,1,.88-4.35,11,11,0,0,1,5.83-5.87,10.53,10.53,0,0,1,4.25-.87,11.06,11.06,0,0,1,4.36.87,11.67,11.67,0,0,1,3.54,2.36,11.36,11.36,0,0,1,2.42,3.51A10.52,10.52,0,0,1,393.42,257ZM391,278v72.06H373.61V278Z" transform="translate(-371.22 -245.93)"/><path id="Path_584" data-name="Path 584" class="cls-1" d="M425,286.87a49.05,49.05,0,0,1,4.6-4,29.35,29.35,0,0,1,5.13-3.16,28.86,28.86,0,0,1,5.79-2,29.45,29.45,0,0,1,6.75-.73,25.74,25.74,0,0,1,10.46,2,20.66,20.66,0,0,1,7.62,5.62,24.74,24.74,0,0,1,4.64,8.63,37.05,37.05,0,0,1,1.58,11.07v45.86H454.17V304.22q0-6.6-3-10.22t-9.2-3.61a18,18,0,0,0-8.43,2,30.46,30.46,0,0,0-7.45,5.55v52.11H408.73V278h10.6a4.27,4.27,0,0,1,4.43,3.16Z" transform="translate(-371.22 -245.93)"/></g></svg>