<svg xmlns="http://www.w3.org/2000/svg" viewBox="0 0 100 50"><g id="Layer_2" data-name="Layer 2"><g id="Layer_2-2" data-name="Layer 2"><path id="Rectangle_17882" data-name="Rectangle 17882" d="M25,0H75a25,25,0,0,1,25,25h0A25,25,0,0,1,75,50H25A25,25,0,0,1,0,25H0A25,25,0,0,1,25,0Z" style="fill:#2c2c2c"/><g id="Leave" style="isolation:isolate"><g style="isolation:isolate"><path d="M36.34,29v2H28.72V18h2.42V29Z" style="fill:#ff3746"/><path d="M39,26.66a4.52,4.52,0,0,0,.25,1.23,2.61,2.61,0,0,0,.53.86,2,2,0,0,0,.77.5,2.76,2.76,0,0,0,1,.17,3.16,3.16,0,0,0,.93-.13,4.5,4.5,0,0,0,.69-.28l.51-.28a.9.9,0,0,1,.43-.12.45.45,0,0,1,.41.2l.64.81a3.82,3.82,0,0,1-.83.73,4.75,4.75,0,0,1-1,.47,5.93,5.93,0,0,1-1,.24,7.05,7.05,0,0,1-1,.07,5,5,0,0,1-1.79-.31,4.11,4.11,0,0,1-1.44-.95,4.33,4.33,0,0,1-1-1.55,5.82,5.82,0,0,1-.35-2.14,5.14,5.14,0,0,1,.3-1.77A4.34,4.34,0,0,1,37.93,23a4.15,4.15,0,0,1,1.4-1,4.56,4.56,0,0,1,1.85-.36,4.48,4.48,0,0,1,1.62.28,3.48,3.48,0,0,1,1.26.82A3.6,3.6,0,0,1,44.9,24a4.92,4.92,0,0,1,.3,1.78,1.49,1.49,0,0,1-.11.68.46.46,0,0,1-.41.17Zm4.24-1.34a2.64,2.64,0,0,0-.12-.81,1.88,1.88,0,0,0-.36-.67,1.68,1.68,0,0,0-.62-.46,2.14,2.14,0,0,0-.87-.17,2.1,2.1,0,0,0-1.52.55,2.7,2.7,0,0,0-.7,1.56Z" style="fill:#ff3746"/><path d="M46.65,23.05a5.48,5.48,0,0,1,3.83-1.46,3.68,3.68,0,0,1,1.45.27,3,3,0,0,1,1.75,1.87,4.44,4.44,0,0,1,.23,1.44V31h-1a1,1,0,0,1-.48-.09.65.65,0,0,1-.27-.39l-.2-.66a7.82,7.82,0,0,1-.68.55,4.49,4.49,0,0,1-.7.4,3.66,3.66,0,0,1-.77.25,4.19,4.19,0,0,1-.9.08A3.71,3.71,0,0,1,47.82,31a2.49,2.49,0,0,1-.86-.48,2.09,2.09,0,0,1-.55-.78,2.62,2.62,0,0,1-.2-1.09,2.49,2.49,0,0,1,.11-.7,2.05,2.05,0,0,1,.39-.66,3.1,3.1,0,0,1,.68-.59,4.57,4.57,0,0,1,1-.49,9.34,9.34,0,0,1,1.44-.33,14.2,14.2,0,0,1,1.87-.16v-.54a2,2,0,0,0-.39-1.37,1.46,1.46,0,0,0-1.15-.45,2.5,2.5,0,0,0-.89.13,3.06,3.06,0,0,0-.63.28l-.49.28a.92.92,0,0,1-.49.13.62.62,0,0,1-.39-.12,1.06,1.06,0,0,1-.27-.29Zm5.09,4a12.64,12.64,0,0,0-1.62.16,4.39,4.39,0,0,0-1,.32,1.4,1.4,0,0,0-.57.44,1.08,1.08,0,0,0,.18,1.38,1.48,1.48,0,0,0,.9.25,2.75,2.75,0,0,0,1.19-.24,3.79,3.79,0,0,0,1-.75Z" style="fill:#ff3746"/><path d="M64.32,21.77,60.66,31h-2L55,21.77h1.84a.69.69,0,0,1,.42.11.59.59,0,0,1,.22.3l1.78,4.93c.1.29.18.57.25.85s.14.55.19.83c.06-.28.13-.56.2-.83s.16-.56.26-.85L62,22.18a.59.59,0,0,1,.22-.3.64.64,0,0,1,.39-.11Z" style="fill:#ff3746"/><path d="M66.93,26.66a3.88,3.88,0,0,0,.25,1.23,2.44,2.44,0,0,0,.52.86,2,2,0,0,0,.77.5,2.8,2.8,0,0,0,1,.17,3.28,3.28,0,0,0,.94-.13,4.36,4.36,0,0,0,.68-.28l.51-.28a.9.9,0,0,1,.43-.12.44.44,0,0,1,.41.2l.64.81a3.6,3.6,0,0,1-.83.73,4.94,4.94,0,0,1-1,.47,6.28,6.28,0,0,1-1,.24,7,7,0,0,1-1,.07,5,5,0,0,1-1.79-.31A4.06,4.06,0,0,1,66,29.87a4.63,4.63,0,0,1-1-1.55,6,6,0,0,1-.35-2.14A4.92,4.92,0,0,1,65,24.41,4.16,4.16,0,0,1,65.89,23a4.26,4.26,0,0,1,1.4-1,4.61,4.61,0,0,1,1.86-.36,4.43,4.43,0,0,1,1.61.28,3.61,3.61,0,0,1,1.27.82A3.72,3.72,0,0,1,72.86,24a4.92,4.92,0,0,1,.3,1.78,1.37,1.37,0,0,1-.11.68.46.46,0,0,1-.41.17Zm4.23-1.34a2.64,2.64,0,0,0-.12-.81,1.88,1.88,0,0,0-.36-.67,1.6,1.6,0,0,0-.62-.46,2.14,2.14,0,0,0-.87-.17,2.07,2.07,0,0,0-1.51.55A2.7,2.7,0,0,0,67,25.32Z" style="fill:#ff3746"/></g></g></g></g></svg>