<svg id="Layer_1" data-name="Layer 1" xmlns="http://www.w3.org/2000/svg" viewBox="0 0 41.53 44.12"><defs><style>.cls-1{fill:#fff;}</style></defs><path class="cls-1" d="M-117.22,192.18c-1.68-1.24-1.69-1.24-1-3a21.66,21.66,0,0,1,13.29-12.8c.33-.12.67-.25,1-.39,0,0,0-.07.09-.19a14.56,14.56,0,0,1-7.72-8.66,14.36,14.36,0,0,1,0-9.07,14.36,14.36,0,0,1,13.76-10A14.34,14.34,0,0,1-84,158.17a14.18,14.18,0,0,1-.58,10.29A14.61,14.61,0,0,1-92,175.88l1.42.53a21.73,21.73,0,0,1,13,12.32c.73,1.68.68,1.77-1,2.82-3.53-9.3-10.06-14.73-20.19-14.31C-108.23,177.64-114.2,183.2-117.22,192.18ZM-97.75,150a12.57,12.57,0,0,0-12.56,12.45,12.58,12.58,0,0,0,12.48,12.67,12.68,12.68,0,0,0,12.61-12.59A12.67,12.67,0,0,0-97.75,150Z" transform="translate(118.64 -148.06)"/></svg>