<svg xmlns="http://www.w3.org/2000/svg" viewBox="0 0 649.28 691.28"><defs><style>.cls-1{fill:#e5e5e5;}.cls-2{fill:#707070;}</style></defs><g id="Layer_2" data-name="Layer 2"><g id="Layer_1-2" data-name="Layer 1"><rect class="cls-1" width="649.28" height="649.28"/><path class="cls-2" d="M499.36,475.53c-52.77-53.93-117.07-78.8-192.6-73.94a225.86,225.86,0,0,0-83.89,21.57C161.56,452.51,116.68,498.25,96,563.06c-13.26,41.58-11.93,99.71-13.26,128.22H566.52c-.66-17.75.88-42.73-1.95-81.24C560.75,557.94,536,512.94,499.36,475.53Z"/><path class="cls-2" d="M324.71,123.27c-71,.34-127.42,55.8-127.32,127s54.8,127.53,127.36,127.41c74.83-.13,126.58-59.51,127.2-127.19C451.88,180.31,394.83,122.93,324.71,123.27Z"/></g></g></svg>