<svg xmlns="http://www.w3.org/2000/svg" viewBox="0 0 24 24"><g id="Layer_2" data-name="Layer 2"><g id="Layer_1-2" data-name="Layer 1"><g id="Group_13079" data-name="Group 13079"><path id="Path_3440-2" data-name="Path 3440-2" d="M12,0A12,12,0,1,1,0,12,12,12,0,0,1,12,0Z" style="fill:#3bc146"/><g id="Group_10345" data-name="Group 10345" style="opacity:0.9959999918937683"><path id="Path_669" data-name="Path 669" d="M13.11,14.3l-3,3L9,16.08A1.7,1.7,0,0,1,9,13.7H9l.1-.1-2-2.77A1.67,1.67,0,0,1,4.81,8.37L8.37,4.81a1.67,1.67,0,0,1,2.46,2.26l2.78,2L13.7,9a1.68,1.68,0,0,1,2.38,0h0l1.18,1.19-3,3" style="fill:none;stroke:#fff;stroke-linecap:round;stroke-linejoin:round"/><path id="Path_670" data-name="Path 670" d="M17.58,17.58h0l.09-1.33L14.42,13,13,14.42l3.25,3.25Z" style="fill:#3bc146;stroke:#fff;stroke-linecap:round;stroke-linejoin:round"/></g></g></g></g></svg>