<svg id="Layer_1" data-name="Layer 1" xmlns="http://www.w3.org/2000/svg" viewBox="0 0 113.03 90.43"><defs><style>.cls-1{fill:none;stroke:#fff;stroke-linecap:round;stroke-linejoin:round;stroke-width:3px;}.cls-2{fill:#fff;}</style></defs><polyline class="cls-1" points="30.5 13.61 1.5 44.71 30.5 75.81"/><path class="cls-2" d="M502.59,806.51a11,11,0,1,0,11,11A11,11,0,0,0,502.59,806.51Zm0,16.94a6,6,0,1,1,6-6A6,6,0,0,1,502.59,823.45Z" transform="translate(-412.51 -806.51)"/><path class="cls-2" d="M520.59,862.65a2.52,2.52,0,0,0,2.52-2.52V847.28c0-15.33-24.22-15.5-25.25-15.5a2.51,2.51,0,0,0-2.52,2.51V862a2.52,2.52,0,1,0,5,0v-25c5.42.45,17.71,2.35,17.71,10.34v12.85A2.52,2.52,0,0,0,520.59,862.65Z" transform="translate(-412.51 -806.51)"/><path class="cls-2" d="M486,896.94a2.51,2.51,0,0,0,2.51-2.51V891.1c0-15.15,8.85-18.53,9.83-18.85,10.95-2.08,13.17-9.42,12.81-13.16V844.67a2.52,2.52,0,0,0-5,0v14.55a2.46,2.46,0,0,0,0,.26c.05.62.28,6.17-8.86,7.85l-.23.06c-.55.15-13.57,4-13.57,23.71v3.33A2.51,2.51,0,0,0,486,896.94Z" transform="translate(-412.51 -806.51)"/><path class="cls-2" d="M522.28,894.87a2.45,2.45,0,0,0,.75.12,2.51,2.51,0,0,0,.76-4.91c-10.19-3.22-14.85-16.82-14.91-17a2.51,2.51,0,0,0-4.77,1.58C504.33,875.31,509.6,890.87,522.28,894.87Z" transform="translate(-412.51 -806.51)"/><path class="cls-2" d="M489.51,839.79c0,.06-2.11,6.52-8.58,6.52a2.52,2.52,0,1,0,0,5c8.09,0,12.29-6.57,13.38-10.05a2.51,2.51,0,1,0-4.8-1.5Z" transform="translate(-412.51 -806.51)"/></svg>