<svg id="Layer_1" data-name="Layer 1" xmlns="http://www.w3.org/2000/svg" viewBox="0 0 213.22 60"><defs><style>.cls-1{fill:#fff;}</style></defs><g id="SPACEIN_Logo_BETA" data-name="SPACEIN Logo BETA"><g id="Group_11986" data-name="Group 11986"><g id="Group_11984" data-name="Group 11984"><g id="Group_11982" data-name="Group 11982"><path id="Path_3181" data-name="Path 3181" class="cls-1" d="M18.69,16.13a1.82,1.82,0,0,1-.52.62,1.18,1.18,0,0,1-.68.2,1.82,1.82,0,0,1-.93-.32c-.33-.21-.73-.45-1.19-.71a10.67,10.67,0,0,0-1.63-.7,7.08,7.08,0,0,0-2.19-.32,6.41,6.41,0,0,0-2,.28,4.24,4.24,0,0,0-1.44.76,3.08,3.08,0,0,0-.87,1.18A3.82,3.82,0,0,0,7,18.62a2.62,2.62,0,0,0,.58,1.73,4.87,4.87,0,0,0,1.55,1.19,14.2,14.2,0,0,0,2.18.88c.82.26,1.65.53,2.51.83a22,22,0,0,1,2.51,1,8.5,8.5,0,0,1,2.19,1.47A6.66,6.66,0,0,1,20,27.91,7.64,7.64,0,0,1,20.59,31a10.16,10.16,0,0,1-.68,3.74,8.65,8.65,0,0,1-2,3,9.54,9.54,0,0,1-3.22,2,11.72,11.72,0,0,1-4.35.74,14.47,14.47,0,0,1-7.76-2.28,11.55,11.55,0,0,1-2-1.59L2.24,34.1a1.74,1.74,0,0,1,.53-.48,1.31,1.31,0,0,1,.69-.19,1.92,1.92,0,0,1,1.1.42q.6.42,1.41.93a11.62,11.62,0,0,0,1.91.93,7.55,7.55,0,0,0,2.63.42A5.35,5.35,0,0,0,14.14,35a4,4,0,0,0,1.29-3.19,3,3,0,0,0-.58-1.9,4.78,4.78,0,0,0-1.55-1.24,11.29,11.29,0,0,0-2.18-.84c-.82-.24-1.65-.49-2.49-.76a20.42,20.42,0,0,1-2.49-1A8,8,0,0,1,4,24.61a6.79,6.79,0,0,1-1.54-2.3,8.58,8.58,0,0,1-.58-3.4,8.16,8.16,0,0,1,2.51-5.86,9.25,9.25,0,0,1,3-1.9,11,11,0,0,1,4.13-.71,13.91,13.91,0,0,1,4.82.81,10.89,10.89,0,0,1,3.75,2.29Z"/><path id="Path_3182" data-name="Path 3182" class="cls-1" d="M29,22.19a10.68,10.68,0,0,1,2.92-2.34,7.64,7.64,0,0,1,3.83-.9,6.82,6.82,0,0,1,3.14.71,7,7,0,0,1,2.45,2.07,9.84,9.84,0,0,1,1.59,3.35,16.4,16.4,0,0,1,.56,4.57A14.27,14.27,0,0,1,42.83,34,10.47,10.47,0,0,1,41,37.47a8.42,8.42,0,0,1-2.83,2.3,8.29,8.29,0,0,1-3.73.82,7.49,7.49,0,0,1-3-.54,7.36,7.36,0,0,1-2.23-1.5v8.58h-5V19.33h3.08a1.26,1.26,0,0,1,1.29.92Zm.26,12.66a5,5,0,0,0,1.87,1.47,5.48,5.48,0,0,0,2.19.43,4.75,4.75,0,0,0,2.07-.43A4,4,0,0,0,36.92,35a6.52,6.52,0,0,0,1-2.22,12.87,12.87,0,0,0,.35-3.16,14.14,14.14,0,0,0-.3-3.11,6,6,0,0,0-.85-2.07,3.34,3.34,0,0,0-1.33-1.17A4.29,4.29,0,0,0,34,22.92a5.23,5.23,0,0,0-2.68.67,8.07,8.07,0,0,0-2.08,1.87Z"/><path id="Path_3183" data-name="Path 3183" class="cls-1" d="M46.89,22.25a12.45,12.45,0,0,1,8.7-3.3,8.39,8.39,0,0,1,3.29.6,6.77,6.77,0,0,1,2.45,1.67,7.17,7.17,0,0,1,1.52,2.56,9.61,9.61,0,0,1,.52,3.27V40.28H61.09A2.37,2.37,0,0,1,60,40.07a1.48,1.48,0,0,1-.61-.87l-.45-1.51A17,17,0,0,1,57.37,39a9.44,9.44,0,0,1-1.57.91,8.92,8.92,0,0,1-1.75.56,10,10,0,0,1-2,.19,7.82,7.82,0,0,1-2.45-.36,5.29,5.29,0,0,1-1.94-1.07,4.77,4.77,0,0,1-1.27-1.77,6.55,6.55,0,0,1-.45-2.47,5.36,5.36,0,0,1,.27-1.59,4.61,4.61,0,0,1,.87-1.5,7.47,7.47,0,0,1,1.56-1.35A10.79,10.79,0,0,1,51,29.4a20,20,0,0,1,3.26-.76,33.37,33.37,0,0,1,4.24-.36V27.06a4.59,4.59,0,0,0-.9-3.12,3.31,3.31,0,0,0-2.59-1,6.09,6.09,0,0,0-2,.29,8.23,8.23,0,0,0-1.42.64l-1.11.64a2.31,2.31,0,0,1-1.12.29,1.43,1.43,0,0,1-.89-.28,2.29,2.29,0,0,1-.6-.64Zm11.56,9.09a28.18,28.18,0,0,0-3.67.38,9.81,9.81,0,0,0-2.39.7,3.18,3.18,0,0,0-1.29,1,2.47,2.47,0,0,0,.4,3.15,3.38,3.38,0,0,0,2,.57,5.94,5.94,0,0,0,2.69-.56,8,8,0,0,0,2.21-1.7Z"/><path id="Path_3184" data-name="Path 3184" class="cls-1" d="M83.12,23.77a3.11,3.11,0,0,1-.44.45,1,1,0,0,1-.62.16,1.39,1.39,0,0,1-.76-.24c-.24-.15-.53-.33-.88-.53a7.27,7.27,0,0,0-1.21-.53,5.47,5.47,0,0,0-1.75-.23,5.17,5.17,0,0,0-2.32.48,4.23,4.23,0,0,0-1.67,1.38,6.2,6.2,0,0,0-1,2.17,11.76,11.76,0,0,0-.33,2.89,11.52,11.52,0,0,0,.36,3,6.43,6.43,0,0,0,1,2.2,4.45,4.45,0,0,0,1.64,1.34,4.72,4.72,0,0,0,2.16.46,5.16,5.16,0,0,0,2-.29,6.05,6.05,0,0,0,1.26-.66c.34-.23.63-.45.89-.65a1.35,1.35,0,0,1,.84-.3,1,1,0,0,1,.92.47l1.45,1.84a8.87,8.87,0,0,1-1.82,1.64,9.6,9.6,0,0,1-2,1.07,10.72,10.72,0,0,1-2.16.56,15.07,15.07,0,0,1-2.22.16,9.37,9.37,0,0,1-3.66-.72,8.81,8.81,0,0,1-3-2.12,10.22,10.22,0,0,1-2-3.4A13.22,13.22,0,0,1,67,29.77a13.21,13.21,0,0,1,.67-4.28,9.59,9.59,0,0,1,1.95-3.41,8.94,8.94,0,0,1,3.18-2.26A11.12,11.12,0,0,1,77.15,19a10.38,10.38,0,0,1,4.12.75,10,10,0,0,1,3.17,2.17Z"/><path id="Path_3185" data-name="Path 3185" class="cls-1" d="M91.31,30.44a10.18,10.18,0,0,0,.57,2.79,5.71,5.71,0,0,0,1.19,1.94,4.58,4.58,0,0,0,1.74,1.14,6.36,6.36,0,0,0,2.24.38,6.8,6.8,0,0,0,2.11-.28,9.65,9.65,0,0,0,1.56-.64c.44-.23.83-.44,1.16-.63a2,2,0,0,1,1-.29,1.06,1.06,0,0,1,.94.47l1.45,1.84a8.48,8.48,0,0,1-1.88,1.65,10.9,10.9,0,0,1-2.17,1.06,12.35,12.35,0,0,1-2.31.56,15.89,15.89,0,0,1-2.28.16,11.25,11.25,0,0,1-4.06-.72,9.17,9.17,0,0,1-3.27-2.15,10,10,0,0,1-2.18-3.51,13.61,13.61,0,0,1-.8-4.85,11.5,11.5,0,0,1,.69-4A9.8,9.8,0,0,1,89,22a9.38,9.38,0,0,1,3.17-2.22A10.51,10.51,0,0,1,96.36,19a10.36,10.36,0,0,1,3.65.64,8,8,0,0,1,2.88,1.84,8.68,8.68,0,0,1,1.89,3,10.88,10.88,0,0,1,.68,4,3.23,3.23,0,0,1-.24,1.54,1,1,0,0,1-.94.4Zm9.62-3a6.1,6.1,0,0,0-.28-1.85A4.49,4.49,0,0,0,99.83,24a4,4,0,0,0-1.4-1,5,5,0,0,0-2-.38A4.66,4.66,0,0,0,93,23.87a6.06,6.06,0,0,0-1.61,3.53Z"/><path id="Path_3186" data-name="Path 3186" class="cls-1" d="M115.16,13.23a3,3,0,0,1-.26,1.22,3.38,3.38,0,0,1-1.74,1.69,3.25,3.25,0,0,1-2.5,0,3.36,3.36,0,0,1-1-.69,3.31,3.31,0,0,1-.69-1,3,3,0,0,1-.25-1.22A3.23,3.23,0,0,1,109,12a3.34,3.34,0,0,1,.69-1,3.16,3.16,0,0,1,1-.68,3.09,3.09,0,0,1,1.23-.26,3.24,3.24,0,0,1,1.27.26,3.36,3.36,0,0,1,1,.68,3.29,3.29,0,0,1,.71,1A3.24,3.24,0,0,1,115.16,13.23Zm-.69,6.1v21H109.4v-21Z"/><path id="Path_3187" data-name="Path 3187" class="cls-1" d="M124.33,21.91a15.07,15.07,0,0,1,1.34-1.18,8.61,8.61,0,0,1,3.17-1.51,8.65,8.65,0,0,1,2-.21,7.59,7.59,0,0,1,3,.58,6.15,6.15,0,0,1,2.21,1.63,7.15,7.15,0,0,1,1.35,2.52,10.56,10.56,0,0,1,.46,3.21V40.29h-5V27a4.53,4.53,0,0,0-.88-3,3.3,3.3,0,0,0-2.68-1.05,5.24,5.24,0,0,0-2.45.59,9,9,0,0,0-2.17,1.61V40.29h-5V19.34h3.09a1.22,1.22,0,0,1,1.28.91Z"/></g><path id="Path_3188" data-name="Path 3188" class="cls-1" d="M180.26.09A29.35,29.35,0,0,0,151,27.22h23.89l-9.76-9.76a2.22,2.22,0,0,1,3.14-3.14l13.56,13.55a2.23,2.23,0,0,1,0,3.15h0L168.27,44.58a2.22,2.22,0,1,1-3.14-3.15l9.76-9.76H151A29.35,29.35,0,1,0,180.26.09Z"/></g><g id="Group_11985" data-name="Group 11985"><path id="Path_3189" data-name="Path 3189" class="cls-1" d="M130.4,49.1h-4V59.91h-1.64V49.1h-4V47.72h9.55Zm7.08,6.28-1.91-5c-.06-.14-.12-.32-.18-.51l-.18-.63a11,11,0,0,1-.36,1.15l-1.92,5Zm3.44,4.53h-1.28a.56.56,0,0,1-.35-.11.63.63,0,0,1-.21-.28l-1.14-3h-5.47l-1.14,3a.64.64,0,0,1-.19.27.58.58,0,0,1-.36.12H129.5l4.88-12.19H136Z"/><path id="Path_3190" data-name="Path 3190" class="cls-1" d="M104.94,58.6a4.11,4.11,0,0,0,1.21-.16A2.23,2.23,0,0,0,107,58a1.69,1.69,0,0,0,.48-.7,2.21,2.21,0,0,0,.15-.88,1.82,1.82,0,0,0-.67-1.5,3.13,3.13,0,0,0-2-.55H102.3V58.6ZM102.3,49v4.16h2.18a4.46,4.46,0,0,0,1.21-.15,2.44,2.44,0,0,0,.85-.43,1.64,1.64,0,0,0,.5-.66,2.25,2.25,0,0,0,.16-.85,1.86,1.86,0,0,0-.65-1.57,3.28,3.28,0,0,0-2-.5Zm2.25-1.3a7.38,7.38,0,0,1,1.93.22,3.75,3.75,0,0,1,1.34.63,2.45,2.45,0,0,1,.77,1,3.34,3.34,0,0,1,.24,1.33,2.6,2.6,0,0,1-.56,1.63,3.14,3.14,0,0,1-.71.65,4,4,0,0,1-1,.46,3.63,3.63,0,0,1,2,1,2.54,2.54,0,0,1,.68,1.85,3.42,3.42,0,0,1-.28,1.41,3,3,0,0,1-.84,1.1,4,4,0,0,1-1.35.71,6.2,6.2,0,0,1-1.82.25h-4.3V47.72Zm14.63,10.84v1.35h-7.51V47.72h7.51v1.34h-5.86v4h4.75V54.4h-4.75v4.16Z"/></g></g></g></svg>