<svg xmlns="http://www.w3.org/2000/svg" width="149.13" height="42.683" viewBox="0 0 149.13 42.683">
  <g id="Logo_White" transform="translate(0 0)">
    <g id="Group_11987" data-name="Group 11987" transform="translate(0)">
      <g id="Group_11984" data-name="Group 11984">
        <g id="Group_11982" data-name="Group 11982" transform="translate(0 7.072)">
          <path id="Path_3181" data-name="Path 3181" d="M139.867,175.717a1.352,1.352,0,0,1-.372.444.825.825,0,0,1-.488.139,1.257,1.257,0,0,1-.663-.226q-.357-.226-.852-.5a7.043,7.043,0,0,0-1.158-.5,4.871,4.871,0,0,0-1.566-.226,4.676,4.676,0,0,0-1.428.2,3,3,0,0,0-1.027.546,2.186,2.186,0,0,0-.619.838,2.748,2.748,0,0,0-.2,1.071,1.862,1.862,0,0,0,.415,1.239,3.465,3.465,0,0,0,1.1.845,10.19,10.19,0,0,0,1.559.627q.874.277,1.792.59a16.931,16.931,0,0,1,1.792.729,6.192,6.192,0,0,1,1.559,1.049,4.755,4.755,0,0,1,1.1,1.552,5.389,5.389,0,0,1,.415,2.229,7.264,7.264,0,0,1-.488,2.674,6.171,6.171,0,0,1-1.428,2.171,6.725,6.725,0,0,1-2.295,1.457,8.45,8.45,0,0,1-3.1.532,10.011,10.011,0,0,1-1.982-.2,10.407,10.407,0,0,1-1.872-.561,9.989,9.989,0,0,1-1.683-.874,8.1,8.1,0,0,1-1.4-1.136l1.151-1.88a1.229,1.229,0,0,1,.379-.342.955.955,0,0,1,.5-.138,1.393,1.393,0,0,1,.787.3q.422.3,1.005.663a7.878,7.878,0,0,0,1.362.663,5.236,5.236,0,0,0,1.872.3,3.843,3.843,0,0,0,2.594-.794,2.852,2.852,0,0,0,.918-2.28,2.118,2.118,0,0,0-.415-1.355,3.356,3.356,0,0,0-1.1-.882,8.238,8.238,0,0,0-1.559-.6q-.874-.248-1.778-.539a15.286,15.286,0,0,1-1.778-.7,5.755,5.755,0,0,1-1.559-1.064,4.837,4.837,0,0,1-1.1-1.639,6.248,6.248,0,0,1-.415-2.426,5.829,5.829,0,0,1,1.792-4.182,6.531,6.531,0,0,1,2.156-1.355,7.921,7.921,0,0,1,2.943-.51,9.831,9.831,0,0,1,3.439.583,7.765,7.765,0,0,1,2.681,1.632Z" transform="translate(-126.971 -171.346)" fill="#fff"/>
          <path id="Path_3182" data-name="Path 3182" d="M232.492,210.866a7.8,7.8,0,0,1,2.084-1.676,5.6,5.6,0,0,1,2.739-.641,4.9,4.9,0,0,1,2.237.51,5.023,5.023,0,0,1,1.749,1.479,7.1,7.1,0,0,1,1.137,2.39,12.026,12.026,0,0,1,.4,3.257,10.245,10.245,0,0,1-.452,3.1,7.6,7.6,0,0,1-1.289,2.477,5.963,5.963,0,0,1-2.026,1.639,5.893,5.893,0,0,1-2.659.59,5.358,5.358,0,0,1-2.142-.386,5.228,5.228,0,0,1-1.588-1.071v6.12h-3.6V208.826h2.2a.884.884,0,0,1,.918.656Zm.189,9.034a3.542,3.542,0,0,0,1.333,1.049,3.969,3.969,0,0,0,1.567.306,3.438,3.438,0,0,0,1.472-.306,2.883,2.883,0,0,0,1.115-.933,4.615,4.615,0,0,0,.707-1.581,9.04,9.04,0,0,0,.248-2.251,10.007,10.007,0,0,0-.211-2.222,4.3,4.3,0,0,0-.6-1.479,2.388,2.388,0,0,0-.954-.83,2.976,2.976,0,0,0-1.275-.262,3.638,3.638,0,0,0-1.909.473,5.8,5.8,0,0,0-1.486,1.333Z" transform="translate(-212.267 -202.167)" fill="#fff"/>
          <path id="Path_3183" data-name="Path 3183" d="M323.853,210.91a8.871,8.871,0,0,1,6.207-2.361,6.066,6.066,0,0,1,2.346.43,4.958,4.958,0,0,1,1.749,1.195A5.121,5.121,0,0,1,335.24,212a7.029,7.029,0,0,1,.372,2.331v9.442H333.98a1.649,1.649,0,0,1-.787-.153,1.059,1.059,0,0,1-.437-.619l-.321-1.078a12.953,12.953,0,0,1-1.107.9,6.521,6.521,0,0,1-1.122.648,6.037,6.037,0,0,1-1.246.4,7.186,7.186,0,0,1-1.464.138,5.739,5.739,0,0,1-1.748-.255,3.836,3.836,0,0,1-1.384-.765,3.43,3.43,0,0,1-.9-1.268,4.5,4.5,0,0,1-.32-1.763,3.51,3.51,0,0,1,.189-1.129,3.3,3.3,0,0,1,.619-1.071,5.149,5.149,0,0,1,1.115-.962,7.258,7.258,0,0,1,1.683-.787,14.556,14.556,0,0,1,2.324-.546,23.223,23.223,0,0,1,3.031-.255v-.874a3.272,3.272,0,0,0-.641-2.222,2.346,2.346,0,0,0-1.85-.721,4.394,4.394,0,0,0-1.45.2,5.968,5.968,0,0,0-1.013.459q-.437.255-.794.459a1.57,1.57,0,0,1-.794.2,1.037,1.037,0,0,1-.641-.2,1.64,1.64,0,0,1-.423-.459Zm8.247,6.484a19.884,19.884,0,0,0-2.623.27,6.983,6.983,0,0,0-1.7.5,2.239,2.239,0,0,0-.918.714,1.767,1.767,0,0,0,.284,2.244,2.43,2.43,0,0,0,1.464.408,4.27,4.27,0,0,0,1.916-.4,5.688,5.688,0,0,0,1.581-1.217Z" transform="translate(-290.835 -202.167)" fill="#fff"/>
          <path id="Path_3184" data-name="Path 3184" d="M426.052,212.21a1.8,1.8,0,0,1-.313.32.723.723,0,0,1-.444.117.99.99,0,0,1-.539-.167q-.262-.167-.627-.379a4.7,4.7,0,0,0-.867-.379,3.989,3.989,0,0,0-1.246-.167,3.8,3.8,0,0,0-1.661.342,3.15,3.15,0,0,0-1.188.984,4.432,4.432,0,0,0-.707,1.552,8.334,8.334,0,0,0-.233,2.062,8.076,8.076,0,0,0,.255,2.127,4.545,4.545,0,0,0,.736,1.566,3.166,3.166,0,0,0,1.166.962,3.53,3.53,0,0,0,1.544.328,3.827,3.827,0,0,0,1.392-.211,4.375,4.375,0,0,0,.9-.466q.364-.255.634-.466a.956.956,0,0,1,.6-.211.731.731,0,0,1,.656.335l1.035,1.311a6.507,6.507,0,0,1-1.3,1.173,7.005,7.005,0,0,1-1.45.758,7.392,7.392,0,0,1-1.544.4,10.875,10.875,0,0,1-1.581.117,6.633,6.633,0,0,1-2.608-.517,6.156,6.156,0,0,1-2.142-1.508,7.2,7.2,0,0,1-1.45-2.426,9.369,9.369,0,0,1-.532-3.271,9.507,9.507,0,0,1,.474-3.053,6.912,6.912,0,0,1,1.392-2.433,6.38,6.38,0,0,1,2.273-1.61,7.835,7.835,0,0,1,3.118-.583,7.419,7.419,0,0,1,2.936.539A7.176,7.176,0,0,1,427,210.9Z" transform="translate(-367.185 -202.389)" fill="#fff"/>
          <path id="Path_3185" data-name="Path 3185" d="M501.744,216.975a7.083,7.083,0,0,0,.408,1.989,4.063,4.063,0,0,0,.845,1.384,3.31,3.31,0,0,0,1.246.816,4.524,4.524,0,0,0,1.6.27,4.94,4.94,0,0,0,1.508-.2,7.047,7.047,0,0,0,1.107-.452q.473-.247.831-.452a1.394,1.394,0,0,1,.692-.2.745.745,0,0,1,.67.335l1.034,1.311a6,6,0,0,1-1.34,1.173,7.519,7.519,0,0,1-1.552.758,8.5,8.5,0,0,1-1.647.4,11.788,11.788,0,0,1-1.625.117,7.99,7.99,0,0,1-2.9-.517,6.484,6.484,0,0,1-2.331-1.53,7.175,7.175,0,0,1-1.559-2.506,9.7,9.7,0,0,1-.568-3.461,8.274,8.274,0,0,1,.5-2.878,6.913,6.913,0,0,1,1.421-2.346,6.689,6.689,0,0,1,2.259-1.581,7.443,7.443,0,0,1,3.009-.583,7.321,7.321,0,0,1,2.608.452,5.687,5.687,0,0,1,2.055,1.319,6.114,6.114,0,0,1,1.348,2.127,7.928,7.928,0,0,1,.488,2.878,2.337,2.337,0,0,1-.175,1.1.725.725,0,0,1-.67.284Zm6.863-2.171a4.328,4.328,0,0,0-.2-1.319,3.132,3.132,0,0,0-.59-1.086,2.751,2.751,0,0,0-1-.736,3.43,3.43,0,0,0-1.406-.269,3.333,3.333,0,0,0-2.455.889,4.359,4.359,0,0,0-1.144,2.521Z" transform="translate(-437.033 -202.389)" fill="#fff"/>
          <path id="Path_3186" data-name="Path 3186" d="M599.918,172.1a2.051,2.051,0,0,1-.189.874,2.376,2.376,0,0,1-1.239,1.2,2.257,2.257,0,0,1-.9.182,2.169,2.169,0,0,1-.882-.182,2.321,2.321,0,0,1-1.209-1.2,2.115,2.115,0,0,1-.182-.874,2.254,2.254,0,0,1,.182-.9,2.312,2.312,0,0,1,.488-.729,2.337,2.337,0,0,1,.721-.488,2.171,2.171,0,0,1,.882-.182,2.259,2.259,0,0,1,.9.182,2.409,2.409,0,0,1,.736.488,2.355,2.355,0,0,1,.5.729A2.186,2.186,0,0,1,599.918,172.1Zm-.5,4.357V191.4h-3.614v-14.95Z" transform="translate(-518.189 -169.794)" fill="#fff"/>
          <path id="Path_3187" data-name="Path 3187" d="M645.93,210.884a9.755,9.755,0,0,1,.954-.838,6.047,6.047,0,0,1,1.064-.656,5.953,5.953,0,0,1,1.2-.423,6.025,6.025,0,0,1,1.4-.153,5.361,5.361,0,0,1,2.171.415A4.291,4.291,0,0,1,654.3,210.4a5.127,5.127,0,0,1,.962,1.792,7.619,7.619,0,0,1,.328,2.295V224h-3.6v-9.515a3.22,3.22,0,0,0-.627-2.12,2.346,2.346,0,0,0-1.909-.75,3.749,3.749,0,0,0-1.749.423,6.266,6.266,0,0,0-1.545,1.151V224h-3.6v-14.95h2.2a.884.884,0,0,1,.918.656Z" transform="translate(-557.658 -202.389)" fill="#fff"/>
        </g>
        <path id="Path_3188" data-name="Path 3188" d="M799.441,126.848a20.944,20.944,0,0,0-20.881,19.36h17.048l-6.966-6.967A1.587,1.587,0,0,1,790.886,137l9.675,9.675a1.586,1.586,0,0,1,0,2.244l-9.675,9.675a1.587,1.587,0,0,1-2.244-2.244l6.966-6.967H778.56a20.944,20.944,0,1,0,20.881-22.534Z" transform="translate(-671.258 -126.848)" fill="#fff"/>
      </g>
      <g id="Group_11985" data-name="Group 11985" transform="translate(71.382 33.984)">
        <path id="Path_3189" data-name="Path 3189" d="M-16.539-27.671h-2.817v7.709h-1.172v-7.709H-23.35v-.989h6.811Zm5.057,4.48-1.366-3.539q-.061-.158-.127-.367t-.127-.446a6.614,6.614,0,0,1-.261.82l-1.366,3.533Zm2.452,3.229H-9.94a.392.392,0,0,1-.255-.079.485.485,0,0,1-.146-.2l-.813-2.1h-3.9l-.813,2.1a.426.426,0,0,1-.14.194.388.388,0,0,1-.255.085h-.911l3.478-8.7h1.19Z" transform="translate(37.758 28.66)" fill="#fff"/>
        <path id="Path_3190" data-name="Path 3190" d="M-17.767-20.9a2.891,2.891,0,0,0,.868-.115,1.611,1.611,0,0,0,.6-.325,1.259,1.259,0,0,0,.343-.5,1.777,1.777,0,0,0,.109-.634,1.3,1.3,0,0,0-.48-1.065,2.239,2.239,0,0,0-1.439-.392h-1.882V-20.9Zm-1.882-6.835v2.968h1.554a3.049,3.049,0,0,0,.865-.109,1.743,1.743,0,0,0,.607-.3,1.187,1.187,0,0,0,.355-.47,1.552,1.552,0,0,0,.115-.6,1.331,1.331,0,0,0-.461-1.126,2.346,2.346,0,0,0-1.433-.355Zm1.6-.929a5.3,5.3,0,0,1,1.381.158,2.675,2.675,0,0,1,.953.449,1.747,1.747,0,0,1,.549.713,2.446,2.446,0,0,1,.176.95,1.9,1.9,0,0,1-.1.616,1.849,1.849,0,0,1-.3.549,2.143,2.143,0,0,1-.507.458,2.776,2.776,0,0,1-.719.331,2.627,2.627,0,0,1,1.442.683,1.814,1.814,0,0,1,.483,1.314,2.443,2.443,0,0,1-.2,1.008,2.159,2.159,0,0,1-.595.783,2.772,2.772,0,0,1-.962.507,4.336,4.336,0,0,1-1.3.179H-20.82v-8.7ZM-7.6-20.92l-.006.959h-5.36v-8.7h5.36v.959h-4.183v2.89h3.387v.923h-3.387v2.968Z" transform="translate(20.82 28.66)" fill="#fff"/>
      </g>
    </g>
  </g>
</svg>
