<svg xmlns="http://www.w3.org/2000/svg" width="24" height="24" viewBox="0 0 24 24">
  <g id="Group_11780" data-name="Group 11780" transform="translate(-130 -13)">
    <rect id="Rectangle_16863" data-name="Rectangle 16863" width="24" height="24" rx="5" transform="translate(130 13)" fill="#fedb00"/>
    <g id="Group_10741" data-name="Group 10741" transform="translate(134 17)">
      <circle id="Ellipse_1609" data-name="Ellipse 1609" cx="8" cy="8" r="8" transform="translate(0 0.001)" fill="#fff"/>
      <path id="Path_2095" data-name="Path 2095" d="M734.187,467.386q-.2,0-.4.01c-.043,0-.086.007-.129.009-.09.006-.18.012-.269.021-.052.005-.1.013-.156.019-.079.009-.158.018-.236.03-.056.008-.112.019-.168.029-.073.012-.146.024-.218.039s-.116.025-.174.038-.137.03-.2.047-.119.032-.178.048-.13.035-.194.055-.12.038-.18.058-.123.04-.184.062-.121.045-.182.068-.116.045-.173.068-.123.052-.184.079l-.162.073c-.062.029-.124.059-.185.09l-.151.077q-.094.05-.187.1l-.139.08q-.1.056-.189.115l-.125.08c-.065.042-.129.085-.192.129l-.111.079c-.066.047-.131.1-.2.144l-.095.074c-.067.053-.135.107-.2.162l-.076.066c-.07.06-.14.122-.207.184l-.054.051c-.073.069-.146.139-.217.211l-.026.028a7.969,7.969,0,0,0-2.244,4.969h6.521l-2.665-2.661a.606.606,0,0,1,.858-.857l3.7,3.695a.605.605,0,0,1,0,.857l-3.7,3.7a.607.607,0,0,1-.858-.857l2.665-2.66H726.2a7.969,7.969,0,0,0,2.246,4.971l.024.025c.071.073.145.143.219.213l.052.05c.068.063.139.125.209.186l.074.064c.066.056.134.11.2.164l.093.073c.065.05.131.1.2.146l.109.077q.1.066.194.13l.123.079q.095.059.191.116l.137.078q.094.053.189.1l.149.076c.062.031.124.062.187.091l.16.072c.062.027.124.054.186.08l.17.067c.061.024.122.047.184.069s.12.041.181.061.121.04.183.059.127.036.19.054.12.034.181.049.133.031.2.046.118.027.178.039.142.026.213.038.115.021.173.029c.076.011.153.02.229.029.054.007.108.014.163.02.086.008.172.014.259.02l.139.01q.194.01.391.01h.012a8,8,0,0,0,6.144-2.866l.09-.11a7.978,7.978,0,0,0,1.236-2.13q.064-.165.121-.333t.108-.346q.056-.2.1-.394a8,8,0,0,0-7.8-9.82Z" transform="translate(-726.199 -467.386)"/>
    </g>
  </g>
</svg>
