<svg xmlns="http://www.w3.org/2000/svg" width="42.971" height="42.971" viewBox="0 0 42.971 42.971">
  <path id="Path_2349" data-name="Path 2349" d="M2806.865,1983.995l2.569-2.966a1.222,1.222,0,0,0,.062-1.537l-3.657-4.985a1.213,1.213,0,0,0-1.342-.454c-3.646,1.069-5.961,4.256-4.307,8.784a33.673,33.673,0,0,0,18.97,18.97c4.529,1.653,7.715-.661,8.784-4.307a1.213,1.213,0,0,0-.455-1.342l-4.985-3.657a1.222,1.222,0,0,0-1.537.062L2818,1995.13A23.9,23.9,0,0,1,2806.866,1984Z" transform="translate(3417.009 -562.34) rotate(135)" fill="none" stroke="#ff3746" stroke-linecap="round" stroke-linejoin="round" stroke-miterlimit="10" stroke-width="2" fill-rule="evenodd" opacity="0.7"/>
</svg>
