<svg xmlns="http://www.w3.org/2000/svg" width="45" height="50" viewBox="0 0 45 50"><defs><style>.a{fill:none;stroke:#fff;stroke-linecap:round;stroke-linejoin:round;stroke-width:2px;}</style></defs><g transform="translate(-837 -1162)"><path class="a" d="M0,0H43V30H0Z" transform="translate(838 1181)"/><path class="a" d="M10,0h3A10,10,0,0,1,23,10v8a0,0,0,0,1,0,0H0a0,0,0,0,1,0,0V10A10,10,0,0,1,10,0Z" transform="translate(848 1163)"/><path class="a" d="M16100,22849v-9.76a4.5,4.5,0,1,1,5,0v9.76Z" transform="translate(-15243 -21644)"/></g></svg>