<svg id="Layer_1" data-name="Layer 1" xmlns="http://www.w3.org/2000/svg" viewBox="0 0 104.14 104.14"><path id="Path_661" data-name="Path 661" d="M369.32,245.93V350.07H473.45V245.93Zm97.9,97.9H375.55V252.17h91.67Z" transform="translate(-369.32 -245.93)"/><g id="Group_455" data-name="Group 455"><path id="Path_662" data-name="Path 662" d="M411,278.68v14h-2.86v-8c0-.19,0-.39,0-.6s0-.44.05-.67l-3.71,7.19a1.22,1.22,0,0,1-.47.51,1.28,1.28,0,0,1-.66.18H403a1.25,1.25,0,0,1-1.14-.69l-3.71-7.2c0,.23,0,.45.05.67s0,.43,0,.61v8.05h-2.86v-14h2.84a.92.92,0,0,1,.28.05,1.14,1.14,0,0,1,.23.15,1.49,1.49,0,0,1,.2.29l3.6,7.09c.12.24.25.49.37.76s.23.53.34.8c.11-.28.22-.55.34-.82a7.88,7.88,0,0,1,.38-.77l3.59-7.06a1.15,1.15,0,0,1,.2-.29.86.86,0,0,1,.22-.15.93.93,0,0,1,.29-.05H411Z" transform="translate(-369.32 -245.93)"/><path id="Path_663" data-name="Path 663" d="M427.94,289.2a.59.59,0,0,1,.23,0,.48.48,0,0,1,.22.15l1.29,1.35a5.34,5.34,0,0,1-2.12,1.67,7.51,7.51,0,0,1-3,.56,7.35,7.35,0,0,1-2.86-.54,6.43,6.43,0,0,1-2.14-1.5,6.55,6.55,0,0,1-1.35-2.27,8.36,8.36,0,0,1-.47-2.85,7.83,7.83,0,0,1,.51-2.87,6.63,6.63,0,0,1,1.43-2.26,6.51,6.51,0,0,1,2.21-1.48,7.41,7.41,0,0,1,2.83-.53,8.15,8.15,0,0,1,1.48.14,7.22,7.22,0,0,1,1.3.39,5.14,5.14,0,0,1,1.11.59,5.43,5.43,0,0,1,.9.75L428.42,282a1.18,1.18,0,0,1-.25.25.64.64,0,0,1-.4.11.8.8,0,0,1-.33-.08,3.3,3.3,0,0,1-.32-.18l-.38-.24a2.47,2.47,0,0,0-.49-.24,3.28,3.28,0,0,0-.66-.19,4.47,4.47,0,0,0-.89-.08,3.77,3.77,0,0,0-1.48.3,3.37,3.37,0,0,0-1.15.87,4.12,4.12,0,0,0-.75,1.4,6.46,6.46,0,0,0-.26,1.9,5.9,5.9,0,0,0,.29,1.91,4.48,4.48,0,0,0,.8,1.41,3.48,3.48,0,0,0,1.18.87,3.54,3.54,0,0,0,1.44.3,7.34,7.34,0,0,0,.81-.05,3.16,3.16,0,0,0,.68-.14,3.24,3.24,0,0,0,.6-.27,3.33,3.33,0,0,0,.56-.43l.25-.16A.66.66,0,0,1,427.94,289.2Z" transform="translate(-369.32 -245.93)"/><path id="Path_664" data-name="Path 664" d="M445.57,289.2a.59.59,0,0,1,.23,0,.54.54,0,0,1,.22.15l1.29,1.35a5.34,5.34,0,0,1-2.12,1.67,7.56,7.56,0,0,1-3,.56,7.3,7.3,0,0,1-2.85-.54,6.33,6.33,0,0,1-2.14-1.5,6.55,6.55,0,0,1-1.35-2.27,8.36,8.36,0,0,1-.47-2.85,7.83,7.83,0,0,1,.51-2.87,6.63,6.63,0,0,1,1.43-2.26,6.41,6.41,0,0,1,2.21-1.48,7.41,7.41,0,0,1,2.83-.53,8.24,8.24,0,0,1,1.48.14,7.47,7.47,0,0,1,1.3.39,5.9,5.9,0,0,1,2,1.34L446.05,282a1.18,1.18,0,0,1-.25.25.64.64,0,0,1-.4.11.76.76,0,0,1-.33-.08,3.3,3.3,0,0,1-.32-.18l-.38-.24a2.47,2.47,0,0,0-.49-.24,3.28,3.28,0,0,0-.66-.19,4.53,4.53,0,0,0-.89-.08,3.77,3.77,0,0,0-1.48.3,3.37,3.37,0,0,0-1.15.87,4.12,4.12,0,0,0-.75,1.4,6.46,6.46,0,0,0-.26,1.9,5.9,5.9,0,0,0,.29,1.91,4.29,4.29,0,0,0,.8,1.41A3.48,3.48,0,0,0,441,290a3.54,3.54,0,0,0,1.44.3,7,7,0,0,0,.8-.05,3.06,3.06,0,0,0,1.29-.41,3.33,3.33,0,0,0,.56-.43l.25-.16A.63.63,0,0,1,445.57,289.2Z" transform="translate(-369.32 -245.93)"/><path id="Path_665" data-name="Path 665" d="M445.57,313.5a.59.59,0,0,1,.23,0,.54.54,0,0,1,.22.15l1.29,1.35a5.34,5.34,0,0,1-2.12,1.67,7.56,7.56,0,0,1-3,.56,7.3,7.3,0,0,1-2.85-.54,6.43,6.43,0,0,1-2.14-1.5,6.6,6.6,0,0,1-1.35-2.26,8.36,8.36,0,0,1-.47-2.85,7.83,7.83,0,0,1,.51-2.87,6.63,6.63,0,0,1,1.43-2.26,6.33,6.33,0,0,1,2.2-1.48,7.46,7.46,0,0,1,2.84-.53,8.24,8.24,0,0,1,1.48.14,8.41,8.41,0,0,1,1.3.38,6.55,6.55,0,0,1,1.11.59,5.43,5.43,0,0,1,.9.75l-1.09,1.47a1.48,1.48,0,0,1-.25.25.64.64,0,0,1-.4.11.73.73,0,0,1-.33-.08,3.37,3.37,0,0,1-.32-.19l-.38-.24a4.44,4.44,0,0,0-.49-.24,3.9,3.9,0,0,0-.67-.18,4.37,4.37,0,0,0-.88-.08,3.6,3.6,0,0,0-1.48.3,3.28,3.28,0,0,0-1.15.87,4.12,4.12,0,0,0-.75,1.4,6.41,6.41,0,0,0-.26,1.9A5.9,5.9,0,0,0,439,312a4.25,4.25,0,0,0,.8,1.4,3.27,3.27,0,0,0,1.18.87,3.38,3.38,0,0,0,1.44.3,7,7,0,0,0,.8,0,3.91,3.91,0,0,0,.68-.14,3,3,0,0,0,.6-.27,3.55,3.55,0,0,0,.57-.43,1.32,1.32,0,0,1,.25-.16A.64.64,0,0,1,445.57,313.5Z" transform="translate(-369.32 -245.93)"/><path id="Path_666" data-name="Path 666" d="M402.84,309.87h5v5.9a7.23,7.23,0,0,1-2.29,1.14,9.06,9.06,0,0,1-2.54.36,8.83,8.83,0,0,1-3.14-.54,7.39,7.39,0,0,1-2.42-1.5,6.5,6.5,0,0,1-1.56-2.26,7.31,7.31,0,0,1-.55-2.85,7.84,7.84,0,0,1,.52-2.87,6.45,6.45,0,0,1,1.49-2.26,6.71,6.71,0,0,1,2.33-1.48,8.61,8.61,0,0,1,3.06-.53,9.1,9.1,0,0,1,1.64.15,7,7,0,0,1,1.41.39,6.64,6.64,0,0,1,1.19.6,6.89,6.89,0,0,1,1,.75L407,306.3a.91.91,0,0,1-.57.41,1,1,0,0,1-.76-.17,7.75,7.75,0,0,0-.72-.4,4.65,4.65,0,0,0-.7-.28,5,5,0,0,0-.75-.15c-.3,0-.59,0-.88,0a4,4,0,0,0-1.65.32,3.59,3.59,0,0,0-1.24.91,4.17,4.17,0,0,0-.79,1.41,5.63,5.63,0,0,0-.28,1.82,5.78,5.78,0,0,0,.31,2,4,4,0,0,0,.87,1.46,3.63,3.63,0,0,0,1.34.91,4.65,4.65,0,0,0,1.73.31,4.81,4.81,0,0,0,1.07-.12,6.17,6.17,0,0,0,.92-.3v-2.13h-1.38a.6.6,0,0,1-.48-.16.54.54,0,0,1-.18-.41Z" transform="translate(-369.32 -245.93)"/><path id="Path_667" data-name="Path 667" d="M427.92,314.68v2.59H419.5v-14h3.25v11.4Z" transform="translate(-369.32 -245.93)"/></g></svg>