<svg xmlns="http://www.w3.org/2000/svg" width="28.92" height="32" viewBox="0 0 28.92 32">
  <g id="Group_426" data-name="Group 426" transform="translate(1 1)">
    <path id="Path_656" data-name="Path 656" d="M8.321,0A4.161,4.161,0,0,1,4.161,4.161,4.161,4.161,0,0,1,0,0" transform="translate(9.299 25.84)" fill="white" stroke="white" stroke-miterlimit="10" stroke-width="2"/>
    <path id="Path_657" data-name="Path 657" d="M0,4.236V1.906A1.906,1.906,0,0,1,1.906,0H3.6A1.906,1.906,0,0,1,5.507,1.906v2.33" transform="translate(10.707)" fill="transparent" stroke="white" stroke-miterlimit="10" stroke-width="2"/>
    <path id="Path_655" data-name="Path 655" d="M24.262,15.64V8.289A8.289,8.289,0,0,0,15.972,0H10.948A8.289,8.289,0,0,0,2.658,8.289V15.64A3.814,3.814,0,0,0,0,19.274v2.1H26.92v-2.1A3.814,3.814,0,0,0,24.262,15.64Z" transform="translate(0 4.353)" fill="transparent" stroke="white" stroke-miterlimit="10" stroke-width="2"/>
  </g>
</svg>
