<svg xmlns="http://www.w3.org/2000/svg" viewBox="0 0 90 50"><g id="Layer_2" data-name="Layer 2"><g id="Layer_2-2" data-name="Layer 2"><path id="Rectangle_18282" data-name="Rectangle 18282" d="M25,0H65A25,25,0,0,1,90,25h0A25,25,0,0,1,65,50H25A25,25,0,0,1,0,25H0A25,25,0,0,1,25,0Z" style="fill:#2c2c2c"/><g id="Group_10868" data-name="Group 10868"><g id="Users_No_Icon" data-name="Users No Icon"><g id="Group_10867" data-name="Group 10867"><path id="Union_401" data-name="Union 401" d="M28.55,37.9A14.05,14.05,0,1,1,34,39,14.05,14.05,0,0,1,28.55,37.9Zm.76-24a12,12,0,0,0-4.63,18.71,11.42,11.42,0,0,1,15.91-2.81,11.22,11.22,0,0,1,2.78,2.76A12,12,0,0,0,29.31,13.91Z" style="fill:#fff"/><circle id="Ellipse_1859" data-name="Ellipse 1859" cx="34" cy="20.73" r="6" style="fill:#fff"/></g></g></g></g></g></svg>