<svg xmlns="http://www.w3.org/2000/svg" viewBox="0 0 149.12 42.68"><g id="Layer_2" data-name="Layer 2"><g id="Layer_5" data-name="Layer 5"><g id="Logo_White" data-name="Logo White"><g id="Group_11987" data-name="Group 11987"><g id="Group_11984" data-name="Group 11984"><g id="Group_11982" data-name="Group 11982"><path id="Path_3181" data-name="Path 3181" d="M12.89,11.44a1.36,1.36,0,0,1-.37.45A1,1,0,0,1,12,12a1.2,1.2,0,0,1-.66-.23c-.24-.15-.53-.32-.86-.5a6.9,6.9,0,0,0-1.15-.5,4.94,4.94,0,0,0-1.57-.23,4.94,4.94,0,0,0-1.43.2,3.21,3.21,0,0,0-1,.55,2.12,2.12,0,0,0-.61.84,2.61,2.61,0,0,0-.2,1.07,1.86,1.86,0,0,0,.41,1.24,3.47,3.47,0,0,0,1.1.84,10.6,10.6,0,0,0,1.56.63c.58.18,1.18.38,1.79.59a16.37,16.37,0,0,1,1.79.73,6.11,6.11,0,0,1,1.56,1,4.71,4.71,0,0,1,1.1,1.55,5.33,5.33,0,0,1,.42,2.23,7.18,7.18,0,0,1-.49,2.67,6.08,6.08,0,0,1-1.43,2.17A6.68,6.68,0,0,1,10,28.39a8.43,8.43,0,0,1-3.1.53,9.53,9.53,0,0,1-2-.2,9.56,9.56,0,0,1-1.87-.56,10.69,10.69,0,0,1-1.68-.87A8.11,8.11,0,0,1,0,26.15l1.15-1.88a1.24,1.24,0,0,1,.38-.34,1,1,0,0,1,.5-.14,1.43,1.43,0,0,1,.79.3c.28.2.61.42,1,.67a8.53,8.53,0,0,0,1.36.66,5.45,5.45,0,0,0,1.88.3,3.79,3.79,0,0,0,2.59-.8,2.88,2.88,0,0,0,.92-2.28,2.12,2.12,0,0,0-.42-1.35,3.25,3.25,0,0,0-1.1-.88,7.39,7.39,0,0,0-1.56-.6l-1.77-.54a16,16,0,0,1-1.78-.7A5.77,5.77,0,0,1,2.38,17.5a4.69,4.69,0,0,1-1.1-1.64,6.24,6.24,0,0,1-.42-2.42,5.84,5.84,0,0,1,1.8-4.18A6.54,6.54,0,0,1,4.81,7.9a8,8,0,0,1,2.94-.51A10,10,0,0,1,11.19,8a7.78,7.78,0,0,1,2.68,1.64Z"/><path id="Path_3182" data-name="Path 3182" d="M20.22,15.77a8,8,0,0,1,2.08-1.68A5.7,5.7,0,0,1,25,13.45a5,5,0,0,1,2.24.51A5.11,5.11,0,0,1,29,15.44a7.1,7.1,0,0,1,1.13,2.39,11.61,11.61,0,0,1,.4,3.26,10.16,10.16,0,0,1-.45,3.1,7.53,7.53,0,0,1-1.29,2.48,5.8,5.8,0,0,1-4.68,2.23,5,5,0,0,1-3.73-1.46v6.12h-3.6V13.73H19a.89.89,0,0,1,.92.66Zm.19,9a3.4,3.4,0,0,0,1.33,1.05,3.86,3.86,0,0,0,1.57.31,3.41,3.41,0,0,0,1.47-.31,2.86,2.86,0,0,0,1.11-.93,4.42,4.42,0,0,0,.71-1.58,9,9,0,0,0,.25-2.25,10.31,10.31,0,0,0-.21-2.22,4.36,4.36,0,0,0-.6-1.48,2.34,2.34,0,0,0-1-.83,2.92,2.92,0,0,0-1.27-.26,3.64,3.64,0,0,0-1.91.47,5.91,5.91,0,0,0-1.49,1.33Z"/><path id="Path_3183" data-name="Path 3183" d="M33,15.81a8.91,8.91,0,0,1,6.21-2.36,6.23,6.23,0,0,1,2.34.43,4.93,4.93,0,0,1,1.75,1.2A5.14,5.14,0,0,1,44.4,16.9a7.16,7.16,0,0,1,.37,2.34v9.44H43.14a1.67,1.67,0,0,1-.79-.16,1,1,0,0,1-.44-.61l-.32-1.08a13.49,13.49,0,0,1-1.1.9,7,7,0,0,1-1.13.65,6.65,6.65,0,0,1-1.24.4,7.18,7.18,0,0,1-1.47.13,5.68,5.68,0,0,1-1.74-.25,4,4,0,0,1-1.39-.77,3.43,3.43,0,0,1-.9-1.26,4.63,4.63,0,0,1-.32-1.77,3.67,3.67,0,0,1,.19-1.13,3.48,3.48,0,0,1,.62-1.07,5.36,5.36,0,0,1,1.11-1,7.65,7.65,0,0,1,1.69-.79,15.32,15.32,0,0,1,2.32-.54,23.83,23.83,0,0,1,3-.26v-.87A3.2,3.2,0,0,0,40.62,17a2.31,2.31,0,0,0-1.85-.72,4.21,4.21,0,0,0-1.45.2,6.09,6.09,0,0,0-1,.45l-.8.46a1.46,1.46,0,0,1-.79.2,1,1,0,0,1-.64-.2,1.54,1.54,0,0,1-.42-.46Zm8.25,6.49a19.38,19.38,0,0,0-2.63.27,6.9,6.9,0,0,0-1.7.5,2.19,2.19,0,0,0-.91.71A1.78,1.78,0,0,0,36.3,26a2.45,2.45,0,0,0,1.46.41,4.5,4.5,0,0,0,1.92-.4,5.72,5.72,0,0,0,1.58-1.22Z"/><path id="Path_3184" data-name="Path 3184" d="M58.86,16.89a1.88,1.88,0,0,1-.31.32.71.71,0,0,1-.45.12,1,1,0,0,1-.54-.17l-.62-.38a4.74,4.74,0,0,0-.87-.37,3.74,3.74,0,0,0-1.25-.17,3.8,3.8,0,0,0-1.66.34,3.14,3.14,0,0,0-1.19,1,4.48,4.48,0,0,0-.7,1.56,8.86,8.86,0,0,0,0,4.18A4.36,4.36,0,0,0,52,24.87a3.09,3.09,0,0,0,1.16,1,3.46,3.46,0,0,0,1.55.33A3.67,3.67,0,0,0,56.13,26a4.54,4.54,0,0,0,.9-.47l.63-.46a.93.93,0,0,1,.6-.21.73.73,0,0,1,.66.33l1,1.31a6.34,6.34,0,0,1-1.3,1.18,7.11,7.11,0,0,1-1.45.75,6.85,6.85,0,0,1-1.54.4,10.41,10.41,0,0,1-1.58.12,6.51,6.51,0,0,1-2.61-.52,6.15,6.15,0,0,1-2.14-1.5,7.24,7.24,0,0,1-1.45-2.43,9.34,9.34,0,0,1-.53-3.27,9.53,9.53,0,0,1,.47-3.05,7,7,0,0,1,1.39-2.44,6.63,6.63,0,0,1,2.27-1.61,7.93,7.93,0,0,1,3.12-.58,7.38,7.38,0,0,1,2.94.54,7.19,7.19,0,0,1,2.27,1.54Z"/><path id="Path_3185" data-name="Path 3185" d="M64.7,21.66a7.12,7.12,0,0,0,.41,2A4.19,4.19,0,0,0,66,25a3.36,3.36,0,0,0,1.24.82,4.89,4.89,0,0,0,1.6.27,5.14,5.14,0,0,0,1.51-.2,7.59,7.59,0,0,0,1.11-.45l.83-.46a1.53,1.53,0,0,1,.69-.2.75.75,0,0,1,.67.34l1,1.31a5.78,5.78,0,0,1-1.34,1.17,7.19,7.19,0,0,1-1.55.76,8.36,8.36,0,0,1-1.64.4,11.18,11.18,0,0,1-1.63.12,8,8,0,0,1-2.9-.52,6.47,6.47,0,0,1-2.33-1.53,7.12,7.12,0,0,1-1.56-2.51,9.71,9.71,0,0,1-.57-3.46,8.5,8.5,0,0,1,.5-2.87A7.14,7.14,0,0,1,63,15.67a6.7,6.7,0,0,1,2.26-1.58,7.41,7.41,0,0,1,3-.58,7.24,7.24,0,0,1,2.61.45,5.52,5.52,0,0,1,2,1.32,5.86,5.86,0,0,1,1.35,2.12,7.86,7.86,0,0,1,.49,2.88,2.43,2.43,0,0,1-.17,1.1.74.74,0,0,1-.67.29Zm6.87-2.17a4.49,4.49,0,0,0-.2-1.32,3.39,3.39,0,0,0-.59-1.09,2.75,2.75,0,0,0-1-.73,3.44,3.44,0,0,0-1.41-.27,3.32,3.32,0,0,0-2.45.89,4.32,4.32,0,0,0-1.15,2.52Z"/><path id="Path_3186" data-name="Path 3186" d="M81.72,9.38a2,2,0,0,1-.19.87,2.38,2.38,0,0,1-1.24,1.2,2.13,2.13,0,0,1-.9.18,2.07,2.07,0,0,1-.88-.18,2.33,2.33,0,0,1-1.21-1.2,2.15,2.15,0,0,1-.18-.87,2.3,2.3,0,0,1,.18-.9,2.4,2.4,0,0,1,.49-.73,2.36,2.36,0,0,1,.72-.49,2.23,2.23,0,0,1,.88-.18,2.3,2.3,0,0,1,.9.18,2.33,2.33,0,0,1,.74.49,2.43,2.43,0,0,1,.5.73A2.14,2.14,0,0,1,81.72,9.38Zm-.5,4.35v15H77.61V13.73Z"/><path id="Path_3187" data-name="Path 3187" d="M88.26,15.57a9.62,9.62,0,0,1,1-.84,5.85,5.85,0,0,1,1.06-.66,6.58,6.58,0,0,1,1.2-.42,5.51,5.51,0,0,1,1.4-.15,5.18,5.18,0,0,1,2.17.41,4.27,4.27,0,0,1,1.58,1.17,5.2,5.2,0,0,1,1,1.79,7.79,7.79,0,0,1,.32,2.3v9.51h-3.6V19.17a3.21,3.21,0,0,0-.62-2.12,2.34,2.34,0,0,0-1.91-.75,3.67,3.67,0,0,0-1.75.42,6.44,6.44,0,0,0-1.55,1.15V28.68h-3.6V13.73h2.2a.89.89,0,0,1,.92.66Z"/></g><path id="Path_3188" data-name="Path 3188" d="M128.18,0a21,21,0,0,0-20.89,19.36h17l-7-7a1.59,1.59,0,0,1,2.24-2.24l9.68,9.68a1.58,1.58,0,0,1,0,2.24h0l-9.68,9.68a1.59,1.59,0,0,1-2.24-2.25l7-7h-17A20.95,20.95,0,1,0,128.18,0Z"/></g><g id="Group_11985" data-name="Group 11985"><path id="Path_3189" data-name="Path 3189" d="M92.59,35H89.78v7.71H88.6V35H85.78V34h6.81Zm5.06,4.48-1.37-3.54a3.78,3.78,0,0,1-.12-.36c0-.14-.09-.29-.13-.45a7.81,7.81,0,0,1-.26.82L94.4,39.45Zm2.45,3.23h-.91a.33.33,0,0,1-.25-.08.43.43,0,0,1-.15-.2L98,40.3h-3.9l-.81,2.1a.48.48,0,0,1-.14.2.5.5,0,0,1-.26.08H92L95.44,34h1.19Z"/><path id="Path_3190" data-name="Path 3190" d="M74.43,41.74a2.89,2.89,0,0,0,.87-.11,1.77,1.77,0,0,0,.6-.33,1.17,1.17,0,0,0,.34-.5,1.9,1.9,0,0,0,.11-.63,1.3,1.3,0,0,0-.48-1.07,2.29,2.29,0,0,0-1.44-.39H72.55v3Zm-1.88-6.83v3H74.1a3.12,3.12,0,0,0,.86-.11,1.74,1.74,0,0,0,.61-.3,1.26,1.26,0,0,0,.36-.47,1.77,1.77,0,0,0,.11-.6,1.32,1.32,0,0,0-.46-1.13,2.33,2.33,0,0,0-1.43-.35Zm1.6-.93a5,5,0,0,1,1.38.16,2.6,2.6,0,0,1,1,.45,1.75,1.75,0,0,1,.55.71,2.35,2.35,0,0,1,.17,1,1.65,1.65,0,0,1-.1.62,1.52,1.52,0,0,1-.3.54,2,2,0,0,1-.5.46,2.47,2.47,0,0,1-.72.33,2.7,2.7,0,0,1,1.44.69,1.77,1.77,0,0,1,.48,1.31,2.34,2.34,0,0,1-.2,1,2.15,2.15,0,0,1-.59.78,2.78,2.78,0,0,1-1,.51,4.74,4.74,0,0,1-1.3.18H71.37V34Zm10.44,7.74v1H79.23V34h5.36v1H80.41v2.89h3.38v.93H80.41v3Z"/></g></g></g></g></g></svg>