<svg id="Layer_1" data-name="Layer 1" xmlns="http://www.w3.org/2000/svg" viewBox="0 0 501.52 184.33"><defs><style>.cls-1{fill:#fff;}</style></defs><g id="Group_383" data-name="Group 383"><g id="Group_293" data-name="Group 293"><g id="Group_291" data-name="Group 291"><path id="Path_578" data-name="Path 578" d="M222.23,261.15a5.3,5.3,0,0,1-1.49,1.77,3.31,3.31,0,0,1-2,.56,5,5,0,0,1-2.65-.9c-1-.6-2.09-1.27-3.42-2a27.93,27.93,0,0,0-4.63-2,19.31,19.31,0,0,0-6.27-.9,18.71,18.71,0,0,0-5.71.78,12.08,12.08,0,0,0-4.11,2.19,8.64,8.64,0,0,0-2.48,3.35,11.06,11.06,0,0,0-.82,4.29,7.41,7.41,0,0,0,1.67,5,13.71,13.71,0,0,0,4.4,3.38,40,40,0,0,0,6.23,2.51q3.51,1.11,7.18,2.36a69.48,69.48,0,0,1,7.17,2.92,24.78,24.78,0,0,1,6.24,4.2,19,19,0,0,1,4.4,6.21,21.63,21.63,0,0,1,1.66,8.92,29.06,29.06,0,0,1-2,10.7A24.48,24.48,0,0,1,220,323.1a26.79,26.79,0,0,1-9.18,5.83,33.53,33.53,0,0,1-12.42,2.13,40.61,40.61,0,0,1-7.93-.78A42.49,42.49,0,0,1,183,328a39.9,39.9,0,0,1-6.74-3.5,32.59,32.59,0,0,1-5.6-4.55l4.61-7.52a4.87,4.87,0,0,1,1.52-1.37,3.81,3.81,0,0,1,2-.55,5.5,5.5,0,0,1,3.15,1.2q1.68,1.2,4,2.65a30.83,30.83,0,0,0,5.45,2.65,20.75,20.75,0,0,0,7.49,1.2q6.71,0,10.38-3.17t3.67-9.13a8.44,8.44,0,0,0-1.66-5.42,13.34,13.34,0,0,0-4.4-3.53,32.38,32.38,0,0,0-6.24-2.42q-3.5-1-7.11-2.16a58.62,58.62,0,0,1-7.11-2.8,22.91,22.91,0,0,1-6.24-4.25,19.33,19.33,0,0,1-4.4-6.56,24.93,24.93,0,0,1-1.66-9.71,22.93,22.93,0,0,1,1.83-9,23.18,23.18,0,0,1,5.34-7.75,25.93,25.93,0,0,1,8.63-5.42,31.56,31.56,0,0,1,11.77-2,39.33,39.33,0,0,1,13.76,2.33,30.84,30.84,0,0,1,10.73,6.53Z" transform="translate(-170.62 -205.82)"/><path id="Path_579" data-name="Path 579" d="M251.55,278.46a31.59,31.59,0,0,1,8.34-6.7,22.48,22.48,0,0,1,11-2.56,19.54,19.54,0,0,1,8.95,2,20,20,0,0,1,7,5.92,28.29,28.29,0,0,1,4.55,9.56,48.12,48.12,0,0,1,1.6,13,40.8,40.8,0,0,1-1.81,12.41,30.32,30.32,0,0,1-5.16,9.92A23.26,23.26,0,0,1,267.24,331a21.49,21.49,0,0,1-8.57-1.55,20.9,20.9,0,0,1-6.35-4.28v24.48h-14.4V270.3h8.8a3.54,3.54,0,0,1,3.67,2.62Zm.76,36.15a14.14,14.14,0,0,0,5.34,4.2,15.86,15.86,0,0,0,6.27,1.23,13.71,13.71,0,0,0,5.88-1.23,11.37,11.37,0,0,0,4.46-3.73,18.25,18.25,0,0,0,2.83-6.33,35.85,35.85,0,0,0,1-9,40.17,40.17,0,0,0-.84-8.89,17.14,17.14,0,0,0-2.42-5.92,9.61,9.61,0,0,0-3.82-3.33,11.77,11.77,0,0,0-5.1-1,14.51,14.51,0,0,0-7.64,1.89,23.24,23.24,0,0,0-5.94,5.33Z" transform="translate(-170.62 -205.82)"/><path id="Path_580" data-name="Path 580" d="M302.75,278.64a35.48,35.48,0,0,1,24.83-9.45,24.48,24.48,0,0,1,9.39,1.72,19.83,19.83,0,0,1,7,4.79,20.49,20.49,0,0,1,4.34,7.31,28.22,28.22,0,0,1,1.49,9.33v37.78h-6.53a6.6,6.6,0,0,1-3.15-.61,4.22,4.22,0,0,1-1.75-2.48l-1.28-4.31a52.49,52.49,0,0,1-4.43,3.58,26.76,26.76,0,0,1-4.49,2.6,24.3,24.3,0,0,1-5,1.6,28.87,28.87,0,0,1-5.86.55,23,23,0,0,1-7-1,15.3,15.3,0,0,1-5.54-3.06,13.73,13.73,0,0,1-3.62-5.07,18.11,18.11,0,0,1-1.28-7.06,14,14,0,0,1,.76-4.52,13.22,13.22,0,0,1,2.48-4.28,20.27,20.27,0,0,1,4.46-3.85,29.3,29.3,0,0,1,6.73-3.15,58.15,58.15,0,0,1,9.3-2.18,91.32,91.32,0,0,1,12.13-1v-3.5c0-4-.86-7-2.57-8.89s-4.18-2.89-7.4-2.89a17.59,17.59,0,0,0-5.8.82,24.16,24.16,0,0,0-4.05,1.83l-3.18,1.84a6.2,6.2,0,0,1-3.18.81,4.13,4.13,0,0,1-2.56-.78,6.45,6.45,0,0,1-1.69-1.84Zm33,25.94a80.35,80.35,0,0,0-10.5,1.08,28.44,28.44,0,0,0-6.82,2,9,9,0,0,0-3.67,2.86,6.13,6.13,0,0,0-1.11,3.56q0,3.78,2.24,5.42a9.68,9.68,0,0,0,5.86,1.63,17.06,17.06,0,0,0,7.67-1.6,22.94,22.94,0,0,0,6.33-4.87Z" transform="translate(-170.62 -205.82)"/><path id="Path_581" data-name="Path 581" d="M406.17,283a7.27,7.27,0,0,1-1.25,1.29,2.92,2.92,0,0,1-1.78.46A3.93,3.93,0,0,1,401,284c-.7-.44-1.54-.95-2.51-1.51A19.12,19.12,0,0,0,395,281a16.18,16.18,0,0,0-5-.67,15.23,15.23,0,0,0-6.65,1.37,12.53,12.53,0,0,0-4.75,3.94,17.52,17.52,0,0,0-2.83,6.21,33.21,33.21,0,0,0-.93,8.25,32.14,32.14,0,0,0,1,8.51,18.3,18.3,0,0,0,2.94,6.27,12.53,12.53,0,0,0,4.67,3.84,14.14,14.14,0,0,0,6.18,1.32,15.44,15.44,0,0,0,5.56-.85,17.25,17.25,0,0,0,3.59-1.87c1-.68,1.82-1.3,2.54-1.86a3.86,3.86,0,0,1,2.42-.85,2.93,2.93,0,0,1,2.62,1.34l4.14,5.25a26,26,0,0,1-5.19,4.69,27.85,27.85,0,0,1-5.8,3,28.81,28.81,0,0,1-6.18,1.6,43.29,43.29,0,0,1-6.33.47,26.49,26.49,0,0,1-10.43-2.07,24.58,24.58,0,0,1-8.57-6,28.67,28.67,0,0,1-5.8-9.71,37.37,37.37,0,0,1-2.13-13.09A38,38,0,0,1,362,287.88a27.59,27.59,0,0,1,5.57-9.74,25.53,25.53,0,0,1,9.1-6.44,31.34,31.34,0,0,1,12.47-2.34,29.71,29.71,0,0,1,11.75,2.16A28.87,28.87,0,0,1,410,277.7Z" transform="translate(-170.62 -205.82)"/><path id="Path_582" data-name="Path 582" d="M429.56,302a27.79,27.79,0,0,0,1.63,8,16.22,16.22,0,0,0,3.38,5.54,13.35,13.35,0,0,0,5,3.26,18.07,18.07,0,0,0,6.39,1.08,19.52,19.52,0,0,0,6-.82,28,28,0,0,0,4.43-1.8c1.27-.67,2.38-1.27,3.33-1.81a5.63,5.63,0,0,1,2.77-.82,3,3,0,0,1,2.68,1.34l4.14,5.25a24,24,0,0,1-5.36,4.69,29.51,29.51,0,0,1-6.21,3,33.35,33.35,0,0,1-6.59,1.6,45.63,45.63,0,0,1-6.5.47,31.9,31.9,0,0,1-11.6-2.07,26,26,0,0,1-9.33-6.12,28.67,28.67,0,0,1-6.24-10,38.87,38.87,0,0,1-2.27-13.85,33,33,0,0,1,2-11.51,27.72,27.72,0,0,1,5.68-9.39,26.77,26.77,0,0,1,9-6.32,29.81,29.81,0,0,1,12-2.34,29.5,29.5,0,0,1,10.44,1.81,22.93,22.93,0,0,1,8.22,5.28A24.45,24.45,0,0,1,468,285,31.62,31.62,0,0,1,470,296.48a9.22,9.22,0,0,1-.7,4.4,2.89,2.89,0,0,1-2.68,1.13ZM457,293.33a17.51,17.51,0,0,0-.79-5.28,12.49,12.49,0,0,0-2.36-4.34,11,11,0,0,0-4-2.94,13.63,13.63,0,0,0-5.64-1.08q-6.23,0-9.82,3.55t-4.58,10.09Z" transform="translate(-170.62 -205.82)"/></g><circle id="Ellipse_187" data-name="Ellipse 187" cx="413.49" cy="88.03" r="88.03"/><g id="Group_292" data-name="Group 292"><path id="Path_583" data-name="Path 583" class="cls-1" d="M561.83,252.87a8.28,8.28,0,0,1-.75,3.5,9.54,9.54,0,0,1-2,2.85,9.7,9.7,0,0,1-2.94,2,9,9,0,0,1-3.61.73,8.72,8.72,0,0,1-3.53-.73,9.32,9.32,0,0,1-4.84-4.81,8.45,8.45,0,0,1-.73-3.5,9,9,0,0,1,.73-3.62,9.36,9.36,0,0,1,2-2.91,9.16,9.16,0,0,1,2.89-2,8.56,8.56,0,0,1,3.53-.73,9,9,0,0,1,3.61.73,9.49,9.49,0,0,1,2.94,2,9.33,9.33,0,0,1,2,2.91A8.83,8.83,0,0,1,561.83,252.87Zm-2,17.43v59.82H545.39V270.3Z" transform="translate(-170.62 -205.82)"/><path id="Path_584" data-name="Path 584" class="cls-1" d="M588,277.65a37.89,37.89,0,0,1,3.81-3.35,24.92,24.92,0,0,1,4.26-2.63,23.44,23.44,0,0,1,10.41-2.3,21.41,21.41,0,0,1,8.69,1.66,17.13,17.13,0,0,1,6.32,4.66,20.47,20.47,0,0,1,3.85,7.18,30,30,0,0,1,1.31,9.18v38.07h-14.4V292.05q0-5.48-2.5-8.48c-1.68-2-4.22-3-7.64-3a14.83,14.83,0,0,0-7,1.69,25.13,25.13,0,0,0-6.18,4.6v43.26h-14.4V270.3h8.8a3.53,3.53,0,0,1,3.67,2.63Z" transform="translate(-170.62 -205.82)"/></g></g><g id="Group_295" data-name="Group 295"><g id="Group_294" data-name="Group 294"><path id="Path_585" data-name="Path 585" d="M273.6,370.2a1.42,1.42,0,0,1-.39.42.92.92,0,0,1-.54.13,1.58,1.58,0,0,1-.71-.17l-.82-.37a9,9,0,0,0-1-.38,4.69,4.69,0,0,0-1.34-.17,2.93,2.93,0,0,0-1.8.48,1.48,1.48,0,0,0-.64,1.25,1.2,1.2,0,0,0,.36.9,3.19,3.19,0,0,0,1,.63,9.65,9.65,0,0,0,1.36.5c.51.16,1,.33,1.57.52a12.6,12.6,0,0,1,1.57.64,5.58,5.58,0,0,1,1.36.91,4,4,0,0,1,1.32,3.17,5.94,5.94,0,0,1-.47,2.4A5.09,5.09,0,0,1,273,383a6.53,6.53,0,0,1-2.28,1.25,10.94,10.94,0,0,1-5,.29A10.17,10.17,0,0,1,264,384a11,11,0,0,1-1.52-.7,6.22,6.22,0,0,1-1.23-.87l1.11-1.78a1.38,1.38,0,0,1,.47-.49,1.47,1.47,0,0,1,.74-.17,1.51,1.51,0,0,1,.8.22l.81.47a6.76,6.76,0,0,0,1.07.46,4.65,4.65,0,0,0,1.53.22,3.74,3.74,0,0,0,1.2-.16,2.13,2.13,0,0,0,.82-.42,1.62,1.62,0,0,0,.45-.61,1.69,1.69,0,0,0,.15-.7,1.29,1.29,0,0,0-.37-1,3.37,3.37,0,0,0-1-.65,9.9,9.9,0,0,0-1.38-.5c-.52-.15-1-.31-1.58-.5a11.46,11.46,0,0,1-1.58-.66,5.38,5.38,0,0,1-1.37-1,4.53,4.53,0,0,1-1-1.43,5.16,5.16,0,0,1-.37-2.06,5.4,5.4,0,0,1,.43-2.1,5,5,0,0,1,1.3-1.76,6.49,6.49,0,0,1,2.16-1.21,8.93,8.93,0,0,1,3-.45,9.1,9.1,0,0,1,3.46.62,7.55,7.55,0,0,1,2.57,1.63Z" transform="translate(-170.62 -205.82)"/><path id="Path_586" data-name="Path 586" d="M281.64,376.19a5.59,5.59,0,0,0,1.43,3.67,4.34,4.34,0,0,0,3.14,1.16,5.51,5.51,0,0,0,1.71-.23,8.15,8.15,0,0,0,1.26-.52l1-.52a1.8,1.8,0,0,1,.87-.23,1,1,0,0,1,.87.41l1.39,1.73a7.59,7.59,0,0,1-1.68,1.47,9.08,9.08,0,0,1-1.91.92,9.74,9.74,0,0,1-2,.46,14,14,0,0,1-1.94.13,9.87,9.87,0,0,1-3.49-.61,8,8,0,0,1-2.82-1.82,8.33,8.33,0,0,1-1.9-3,11.23,11.23,0,0,1-.7-4.14,10,10,0,0,1,.6-3.43,8.21,8.21,0,0,1,1.73-2.8,8.1,8.1,0,0,1,2.73-1.9,8.91,8.91,0,0,1,3.64-.7,8.72,8.72,0,0,1,3.16.54,6.95,6.95,0,0,1,4.12,4.14,9.5,9.5,0,0,1,.58,3.46,5.2,5.2,0,0,1-.05.88,1.53,1.53,0,0,1-.17.55.66.66,0,0,1-.33.29,1.64,1.64,0,0,1-.54.08Zm7.52-2.84a5.24,5.24,0,0,0-.2-1.42,3.24,3.24,0,0,0-.64-1.2,3,3,0,0,0-1.09-.82,3.66,3.66,0,0,0-1.57-.3,3.62,3.62,0,0,0-2.69,1,5,5,0,0,0-1.26,2.77Z" transform="translate(-170.62 -205.82)"/><path id="Path_587" data-name="Path 587" d="M300.21,376.19a5.59,5.59,0,0,0,1.43,3.67,4.34,4.34,0,0,0,3.14,1.16,5.51,5.51,0,0,0,1.71-.23,8.58,8.58,0,0,0,1.26-.52l1-.52a1.77,1.77,0,0,1,.87-.23,1,1,0,0,1,.87.41l1.38,1.73a7.37,7.37,0,0,1-1.68,1.47,9.26,9.26,0,0,1-1.9.92,9.59,9.59,0,0,1-2,.46,14,14,0,0,1-1.94.13,9.91,9.91,0,0,1-3.49-.61,8,8,0,0,1-2.82-1.82,8.47,8.47,0,0,1-1.9-3,11.23,11.23,0,0,1-.69-4.14,9.57,9.57,0,0,1,.6-3.43,8.06,8.06,0,0,1,4.46-4.7,8.89,8.89,0,0,1,3.63-.7,8.72,8.72,0,0,1,3.16.54,7.07,7.07,0,0,1,2.5,1.59,7.14,7.14,0,0,1,1.63,2.55,9.72,9.72,0,0,1,.58,3.46,8.65,8.65,0,0,1-.05.88,1.78,1.78,0,0,1-.18.55.63.63,0,0,1-.33.29,1.59,1.59,0,0,1-.53.08Zm7.51-2.84a4.56,4.56,0,0,0-.2-1.42,3.22,3.22,0,0,0-.63-1.2,3.14,3.14,0,0,0-1.09-.82,3.74,3.74,0,0,0-1.58-.3,3.59,3.59,0,0,0-2.68,1,4.92,4.92,0,0,0-1.27,2.77Z" transform="translate(-170.62 -205.82)"/><path id="Path_588" data-name="Path 588" d="M338.88,366.52l-9.63,22.66a2,2,0,0,1-.54.73,1.74,1.74,0,0,1-1,.24h-3.55l3.38-7.21-7.17-16.42h4.19a1.37,1.37,0,0,1,.88.26,1.5,1.5,0,0,1,.45.61l3.4,8.54c.13.34.24.67.34,1s.19.68.28,1c.21-.68.45-1.37.71-2l3.15-8.52a1.27,1.27,0,0,1,.5-.62,1.37,1.37,0,0,1,.8-.24Z" transform="translate(-170.62 -205.82)"/><path id="Path_589" data-name="Path 589" d="M348.21,366.25a9.94,9.94,0,0,1,3.66.64,7.9,7.9,0,0,1,4.64,4.71,11.81,11.81,0,0,1,0,7.67,8.09,8.09,0,0,1-1.82,2.9,8,8,0,0,1-2.82,1.83,9.94,9.94,0,0,1-3.66.64,10.08,10.08,0,0,1-3.68-.64,7.89,7.89,0,0,1-2.83-1.83,8.4,8.4,0,0,1-1.83-2.9,11.81,11.81,0,0,1,0-7.67,8.23,8.23,0,0,1,1.83-2.88,8.12,8.12,0,0,1,2.83-1.83A10.08,10.08,0,0,1,348.21,366.25Zm0,14.81a3.47,3.47,0,0,0,3-1.41,9.45,9.45,0,0,0,0-8.38,3.46,3.46,0,0,0-3-1.42,3.51,3.51,0,0,0-3.08,1.41,9.38,9.38,0,0,0,0,8.39,3.51,3.51,0,0,0,3.08,1.41Z" transform="translate(-170.62 -205.82)"/><path id="Path_590" data-name="Path 590" d="M375.85,366.52v17.86h-3a1.12,1.12,0,0,1-1.18-.83l-.31-1.25a12.73,12.73,0,0,1-1.11,1,7.21,7.21,0,0,1-1.22.74,7.05,7.05,0,0,1-1.4.49,7.49,7.49,0,0,1-1.64.17,6.18,6.18,0,0,1-2.58-.5,5.09,5.09,0,0,1-1.9-1.4,6.07,6.07,0,0,1-1.16-2.15,8.74,8.74,0,0,1-.4-2.74V366.53h4.78v11.34a3.56,3.56,0,0,0,.68,2.32,2.54,2.54,0,0,0,2,.82,4.22,4.22,0,0,0,1.88-.44,6.94,6.94,0,0,0,1.68-1.2V366.53Z" transform="translate(-170.62 -205.82)"/><path id="Path_591" data-name="Path 591" d="M394.19,384.66a6.07,6.07,0,0,1-2.15-.36,4.27,4.27,0,0,1-1.58-1,4.48,4.48,0,0,1-1-1.59,6.35,6.35,0,0,1-.33-2.12V370h-1.68a.92.92,0,0,1-.65-.24.93.93,0,0,1-.26-.73v-1.87l2.85-.52,1-4.62a1,1,0,0,1,1.06-.78h2.49v5.44h4.61V370h-4.61v9.32a1.85,1.85,0,0,0,.36,1.18,1.2,1.2,0,0,0,1,.43,2,2,0,0,0,.59-.07,2.65,2.65,0,0,0,.42-.18l.32-.17a.61.61,0,0,1,.3-.08.64.64,0,0,1,.35.1,1.18,1.18,0,0,1,.27.32l1.44,2.29a7,7,0,0,1-2.23,1.17A8.42,8.42,0,0,1,394.19,384.66Z" transform="translate(-170.62 -205.82)"/><path id="Path_592" data-name="Path 592" d="M405.88,368.27a10.55,10.55,0,0,1,1.05-.82,7.27,7.27,0,0,1,1.16-.64,6.53,6.53,0,0,1,1.32-.41,6.35,6.35,0,0,1,1.51-.15,6.15,6.15,0,0,1,2.58.5,5.37,5.37,0,0,1,1.9,1.4,5.91,5.91,0,0,1,1.16,2.15A9,9,0,0,1,417,373v11.35h-4.77V373a3.51,3.51,0,0,0-.69-2.31,2.54,2.54,0,0,0-2-.82,4.25,4.25,0,0,0-1.89.43,6.48,6.48,0,0,0-1.68,1.21v12.84H401.1V358.56h4.78Z" transform="translate(-170.62 -205.82)"/><path id="Path_593" data-name="Path 593" d="M424.55,376.19a5.64,5.64,0,0,0,1.43,3.67,4.34,4.34,0,0,0,3.14,1.16,5.47,5.47,0,0,0,1.71-.23,8.15,8.15,0,0,0,1.26-.52l1-.52a1.8,1.8,0,0,1,.87-.23,1,1,0,0,1,.87.41l1.39,1.73a7.59,7.59,0,0,1-1.68,1.47,9.28,9.28,0,0,1-3.9,1.38,14,14,0,0,1-1.94.13,9.91,9.91,0,0,1-3.49-.61,8,8,0,0,1-2.82-1.82,8.47,8.47,0,0,1-1.9-3,11.23,11.23,0,0,1-.69-4.14,9.57,9.57,0,0,1,.6-3.43,8.19,8.19,0,0,1,1.72-2.8,8,8,0,0,1,2.74-1.9,8.89,8.89,0,0,1,3.63-.7,9,9,0,0,1,3.17.54,6.95,6.95,0,0,1,4.12,4.14,9.72,9.72,0,0,1,.58,3.46,8.65,8.65,0,0,1-.05.88,1.78,1.78,0,0,1-.18.55.63.63,0,0,1-.33.29,1.59,1.59,0,0,1-.53.08Zm7.52-2.84a5.24,5.24,0,0,0-.2-1.42,3.24,3.24,0,0,0-.64-1.2,3,3,0,0,0-1.09-.82,3.66,3.66,0,0,0-1.57-.3,3.62,3.62,0,0,0-2.69,1,5,5,0,0,0-1.26,2.77Z" transform="translate(-170.62 -205.82)"/><path id="Path_594" data-name="Path 594" d="M443.79,369.47a8.15,8.15,0,0,1,2-2.41,4,4,0,0,1,2.6-.88,3.21,3.21,0,0,1,2,.57l-.31,3.53a.75.75,0,0,1-.27.48.84.84,0,0,1-.49.13,5.42,5.42,0,0,1-.8-.08,7.93,7.93,0,0,0-1-.08,3.59,3.59,0,0,0-1.17.19,3.22,3.22,0,0,0-.91.54,3.91,3.91,0,0,0-.72.85,8.26,8.26,0,0,0-.6,1.14v10.93H439.3V366.52h2.82a1.55,1.55,0,0,1,1,.26,1.71,1.71,0,0,1,.4.9Z" transform="translate(-170.62 -205.82)"/><path id="Path_595" data-name="Path 595" d="M455.76,376.19a5.64,5.64,0,0,0,1.43,3.67,4.34,4.34,0,0,0,3.14,1.16,5.47,5.47,0,0,0,1.71-.23,8.26,8.26,0,0,0,1.27-.52l1-.52a1.81,1.81,0,0,1,.88-.23,1,1,0,0,1,.86.41l1.39,1.73a7.59,7.59,0,0,1-1.68,1.47,9.08,9.08,0,0,1-1.91.92,9.59,9.59,0,0,1-2,.46,14,14,0,0,1-1.94.13,9.91,9.91,0,0,1-3.49-.61,8,8,0,0,1-2.82-1.82,8.47,8.47,0,0,1-1.9-3,11.23,11.23,0,0,1-.69-4.14,9.57,9.57,0,0,1,.6-3.43,8.19,8.19,0,0,1,1.72-2.8,8,8,0,0,1,2.74-1.9,9.67,9.67,0,0,1,6.8-.16,6.95,6.95,0,0,1,4.12,4.14,9.72,9.72,0,0,1,.58,3.46,6.49,6.49,0,0,1-.05.88,1.78,1.78,0,0,1-.18.55.63.63,0,0,1-.33.29,1.59,1.59,0,0,1-.53.08Zm7.52-2.84a5.24,5.24,0,0,0-.2-1.42,3.37,3.37,0,0,0-.63-1.2,3.08,3.08,0,0,0-1.1-.82,3.66,3.66,0,0,0-1.57-.3,3.62,3.62,0,0,0-2.69,1,5,5,0,0,0-1.26,2.77Z" transform="translate(-170.62 -205.82)"/></g></g></g></svg>